<svg version="1.2" baseProfile="tiny-ps" xmlns="http://www.w3.org/2000/svg" viewBox="0 0 400 409" width="400" height="409">
	<title>logo-svg</title>
	<style>
		tspan { white-space:pre }
		.shp0 { fill: #f5edde } 
		.shp1 { fill: #ea46cc } 
		.shp2 { fill: #84847c } 
		.shp3 { fill: #672b5c } 
	</style>
	<g id="svgg">
		<path id="path0" fill-rule="evenodd" class="shp0" d="M235.8 213.3L239 213.4L239.2 239C239.31 253.16 239.56 264.85 239.76 265.16C240.19 265.83 241.2 264.72 241.2 263.57C241.2 263.2 241.47 262.38 241.8 261.75C242.13 261.12 242.4 260.33 242.41 260C242.42 259.67 242.69 259.05 243.01 258.62C243.34 258.2 243.61 257.48 243.61 257.02C243.62 256.57 243.89 255.85 244.21 255.42C244.54 255 244.8 254.27 244.8 253.8C244.8 253.33 245.06 252.6 245.39 252.18C245.71 251.75 245.99 251.13 246 250.8C246.01 250.47 246.38 249.48 246.8 248.6C247.22 247.72 247.58 246.8 247.59 246.55C247.59 246.3 247.87 245.58 248.2 244.95C248.53 244.32 248.8 243.49 248.8 243.1C248.8 242.48 249.26 242.4 252.75 242.4L256.71 242.4L256.13 244.1C255.82 245.03 255.3 246.37 254.98 247.06C254.66 247.75 254.4 248.5 254.4 248.72C254.4 248.93 254.13 249.62 253.8 250.25C253.47 250.88 253.2 251.7 253.2 252.07C253.2 252.44 252.95 253.25 252.64 253.87C251.53 256.11 250.8 258.04 250.8 258.74C250.8 259.13 250.54 259.8 250.21 260.22C249.89 260.65 249.62 261.27 249.61 261.6C249.6 261.93 249.34 262.68 249.03 263.27C248.73 263.86 248.35 264.91 248.2 265.6C248.05 266.29 247.67 267.34 247.37 267.93C247.06 268.52 246.8 269.28 246.8 269.62C246.8 269.96 246.64 270.41 246.45 270.62C245.56 271.59 244.68 275.62 245.14 276.63C245.39 277.19 245.6 277.94 245.6 278.32C245.6 278.69 245.87 279.52 246.2 280.15C246.53 280.78 246.8 281.59 246.8 281.95C246.8 282.31 247.06 283.08 247.37 283.67C247.67 284.26 248.05 285.34 248.21 286.07C248.37 286.8 248.63 287.58 248.8 287.8C248.97 288.02 249.24 288.8 249.39 289.53C249.55 290.26 249.93 291.34 250.24 291.93C250.54 292.52 250.8 293.37 250.8 293.82C250.8 294.28 251.06 295 251.39 295.42C251.71 295.85 251.98 296.66 251.99 297.22C251.99 297.79 252.26 298.6 252.59 299.02C252.91 299.45 253.18 300.16 253.19 300.6C253.2 301.04 253.47 301.92 253.8 302.55C254.13 303.18 254.4 303.96 254.4 304.29C254.4 304.61 254.66 305.45 254.97 306.14C255.29 306.83 255.72 308.03 255.93 308.8C256.14 309.57 256.44 310.51 256.6 310.9C256.86 311.54 256.54 311.6 252.86 311.6L248.84 311.6L248.25 310.3C247.93 309.58 247.54 308.4 247.39 307.67C247.25 306.94 246.87 305.86 246.56 305.27C246.26 304.68 246 303.91 246 303.55C246 303.19 245.73 302.38 245.4 301.75C245.07 301.12 244.8 300.23 244.8 299.78C244.8 299.32 244.54 298.6 244.21 298.18C243.89 297.75 243.62 296.98 243.61 296.46C243.61 295.95 243.35 295.05 243.04 294.46C242.74 293.88 241.99 291.78 241.38 289.8C239.61 284.1 239.24 285.86 239.22 300.1L239.2 311.6L231.2 311.6L231.2 262.82C231.2 216.79 231.24 214.02 231.9 213.62C232.28 213.4 234.04 213.25 235.8 213.3ZM198 224.4L206 224.4L206 235.6L198 235.6L198 224.4ZM116.36 243.13C117.95 243.92 120.8 246.35 120.8 246.93C120.8 247.16 121.05 247.62 121.34 247.97C123.02 249.92 123.92 267.28 122.42 268.78C121.35 269.85 116.64 269.99 116.24 268.97C116.11 268.62 116 264.94 116 260.8C116 252.01 115.59 250.38 113.04 249.03C109.33 247.08 107.79 249.89 107.83 258.6C107.86 267.35 108.45 268.8 114.39 274.85C115.61 276.08 116.96 277.56 117.4 278.12C123.79 286.28 123.4 285.15 123.39 295.57L123.38 304.2L121.94 306.52C120.55 308.76 118.37 310.8 117.36 310.8C117.09 310.8 116.79 311.02 116.7 311.29C116.58 311.64 115.24 311.78 111.97 311.77L107.4 311.76L104.91 310.19C102.78 308.84 102.23 308.23 101.11 306.01L99.8 303.4L99.8 285L106.6 285L106.8 293.6C107.03 303.38 107.28 304.3 110.06 305.22C113.93 306.5 116.05 302.97 115.86 295.6C115.64 287.63 114.97 285.88 110.22 280.87C105.73 276.15 103.62 273.81 103.61 273.53C103.61 273.38 103.37 273.02 103.09 272.73C99.13 268.57 98 249.63 101.58 247.2C101.75 247.09 102.08 246.62 102.33 246.15C103.08 244.71 106.86 242.47 108.83 242.29C111.61 242.03 114.87 242.4 116.36 243.13ZM302.06 248.69C302.95 250.56 302.97 250.89 302.98 264.6L303 278.6L287 279L286.89 289.99C286.77 303.05 287.37 305.54 290.64 305.59C294.16 305.64 294.75 303.7 294.78 291.9L294.8 283.2L303.29 283.2L303.11 293.3C302.96 301.74 302.83 303.6 302.27 304.6C301.9 305.26 301.6 305.98 301.6 306.2C301.59 306.85 297.99 310.4 297.33 310.4C297.18 310.4 296.73 310.71 296.31 311.08C295.07 312.2 287.58 312.09 285.2 310.91C282.85 309.75 282.36 309.32 281.2 307.4C280.67 306.52 280.02 305.58 279.76 305.31C278.95 304.48 278.72 295.97 278.88 272.6L279.02 250.2L280.1 248.17C281.93 244.7 284.23 242.97 287.8 242.36C294.22 241.26 299.68 243.68 302.06 248.69ZM152.03 242.4L155.13 242.4L155.4 244C155.7 245.77 156.98 246.23 158.04 244.95C159.51 243.18 161.51 242.4 164.58 242.4C169.36 242.4 170.79 243.67 172.38 249.34C173.57 253.57 173.47 302.88 172.27 306C171.34 308.4 170.28 310.4 169.94 310.4C169.78 310.4 169.34 310.71 168.96 311.1C167.42 312.64 162.08 312.08 159.56 310.12C156.53 307.76 156.62 307.44 156.48 322.02L156.37 334.8L153.02 334.8C151.17 334.8 149.38 334.69 149.03 334.56C148.37 334.3 148.01 243.32 148.67 242.67C148.81 242.52 150.33 242.4 152.03 242.4ZM198 242.4L206 242.4L206 311.6L198 311.6L198 242.4ZM159.43 249.21C156.52 251.07 156.6 250.27 156.6 276.64C156.6 294.72 156.72 300.53 157.1 301.34C157.38 301.92 157.8 302.82 158.04 303.34C158.75 304.89 160.88 305.7 162.33 304.97C164.84 303.72 164.8 304.2 164.8 277C164.8 249.75 164.85 250.28 162.3 249.01C160.83 248.28 160.89 248.27 159.43 249.21ZM289.27 249.11C288.38 249.55 287.87 250.14 287.72 250.89C287.6 251.51 287.34 252.11 287.15 252.23C286.51 252.63 286.72 272.23 287.36 272.77C287.72 273.06 289.14 273.19 291.26 273.12L294.6 273L294.6 262.2C294.6 250.44 294.55 250.13 292.34 249.03C290.84 248.28 290.95 248.28 289.27 249.11Z" />
		<path id="path2" fill-rule="evenodd" class="shp1" d="M205.6 50.72C206.37 51.06 207.59 51.58 208.3 51.87C209.01 52.16 210.19 52.66 210.9 52.99C211.62 53.31 213.19 53.94 214.4 54.4C215.61 54.85 216.96 55.39 217.4 55.59C217.84 55.79 219.82 56.61 221.8 57.42C223.78 58.22 226.52 59.4 227.89 60.04C229.26 60.68 230.61 61.2 230.89 61.2C231.17 61.2 231.94 61.49 232.6 61.84C233.26 62.19 234.7 62.82 235.8 63.25C236.9 63.68 238.34 64.28 239 64.58C239.66 64.89 241.19 65.53 242.4 66.02C244.91 67.02 246.8 68.25 246.8 68.88C246.8 69.12 247.18 70.14 247.65 71.16C248.12 72.17 248.65 73.36 248.82 73.8C249.17 74.72 250.35 77.5 251.33 79.71C251.7 80.55 252 81.47 252 81.77C252 82.06 252.26 82.52 252.57 82.78C252.89 83.04 253.27 83.82 253.43 84.52C253.58 85.21 253.84 86.05 254.02 86.39C255.18 88.64 256 90.49 256 90.87C256 91.12 256.54 92.47 257.2 93.86C257.86 95.26 258.4 96.74 258.4 97.15C258.4 97.56 258.66 98.12 258.97 98.38C259.29 98.64 259.67 99.39 259.81 100.06C259.96 100.71 260.33 101.74 260.63 102.33C260.94 102.92 261.2 103.63 261.2 103.9C261.2 104.17 261.37 104.4 261.57 104.4C261.77 104.4 262.06 104.98 262.21 105.7C262.37 106.42 263.01 108.05 263.65 109.34C265.21 112.51 265.14 112.86 261.59 120.6C261.19 121.48 260.57 122.92 260.22 123.8C259.87 124.68 259.31 125.91 258.99 126.53C258.67 127.16 258.4 127.92 258.4 128.24C258.4 128.55 258.23 129.12 258.03 129.5C256.96 131.54 256 133.68 256 134.05C256 134.28 255.46 135.64 254.8 137.06C254.14 138.49 253.6 139.84 253.6 140.07C253.6 140.3 253.26 141.15 252.85 141.95C251.67 144.26 250.8 146.38 250.8 146.97C250.8 147.26 250.53 147.73 250.2 148C249.87 148.27 249.6 148.76 249.6 149.09C249.6 149.41 249.34 150.25 249.03 150.94C248.72 151.63 248.08 153.1 247.62 154.2C247.15 155.3 246.63 156.47 246.44 156.8C246.03 157.56 243.22 158.95 238 160.98C237.01 161.37 235.88 161.84 235.5 162.04C235.12 162.24 233.6 162.86 232.13 163.41C230.66 163.96 229.27 164.57 229.03 164.76C228.79 164.95 227.97 165.24 227.2 165.4C226.43 165.56 225.62 165.83 225.4 166C225.18 166.17 224.01 166.71 222.8 167.21C221.59 167.7 219.79 168.46 218.8 168.89C217.81 169.32 216.55 169.85 216 170.07C215.45 170.29 214.33 170.82 213.52 171.24C212.71 171.66 211.76 172 211.41 172C211.07 172 210.48 172.17 210.09 172.38C209.71 172.58 208.5 173.14 207.4 173.62C206.3 174.1 204.79 174.78 204.05 175.13C202.35 175.94 199.97 175.91 198.75 175.05C198.24 174.69 197.59 174.4 197.32 174.4C197.04 174.4 195.7 173.86 194.34 173.2C192.97 172.54 191.61 172 191.31 172C191.01 172 190.09 171.65 189.28 171.22C188.47 170.8 187.08 170.16 186.2 169.81C185.32 169.46 184.09 168.91 183.47 168.59C182.84 168.26 182.15 168 181.93 168C181.7 168 180.95 167.74 180.26 167.43C176.5 165.72 175.19 165.2 174.7 165.2C174.4 165.2 173.99 165.04 173.78 164.84C173.57 164.64 172.41 164.09 171.2 163.6C169.99 163.11 168.46 162.48 167.8 162.2C167.14 161.92 165.92 161.4 165.09 161.04C164.25 160.69 163.33 160.4 163.03 160.4C162.74 160.4 162.27 160.13 162 159.8C161.73 159.47 161.24 159.2 160.93 159.2C159.93 159.2 156 157.23 156 156.73C156 156.47 155.65 155.52 155.22 154.63C154.8 153.73 154.07 152.03 153.61 150.84C153.15 149.66 152.5 148.31 152.18 147.86C151.86 147.4 151.6 146.7 151.6 146.31C151.6 145.91 151.43 145.28 151.22 144.9C150.87 144.23 149.81 141.84 148.52 138.8C148.2 138.03 147.68 136.89 147.37 136.27C147.05 135.65 146.8 134.86 146.8 134.53C146.8 134.2 146.54 133.45 146.22 132.86C145.9 132.28 145.35 131.08 145 130.2C144.64 129.32 144 127.88 143.57 127C143.15 126.12 142.8 125.17 142.8 124.9C142.8 124.63 142.26 123.26 141.6 121.86C140.94 120.47 140.4 119.12 140.4 118.87C140.4 118.48 139.47 116.38 138.37 114.31C137.55 112.76 137.91 111.59 142.16 101.94C142.51 101.14 142.8 100.31 142.8 100.1C142.8 99.89 143.34 98.65 144 97.36C144.65 96.06 145.19 94.73 145.2 94.4C145.2 94.07 145.56 93.26 146 92.6C146.44 91.94 146.8 91.15 146.8 90.84C146.8 90.53 147.34 89.14 148 87.74C148.66 86.34 149.2 85 149.2 84.76C149.2 84.52 149.46 83.85 149.78 83.26C150.1 82.68 150.65 81.48 151 80.6C151.36 79.72 151.97 78.28 152.36 77.4C154.08 73.56 154.4 72.74 154.4 72.23C154.4 71.94 154.65 71.49 154.96 71.23C155.26 70.98 155.63 70.19 155.76 69.49C156.07 67.86 158.03 66.62 162.54 65.19C163.16 65 163.88 64.67 164.14 64.47C164.39 64.26 165.05 63.96 165.6 63.8C166.15 63.64 167.72 62.98 169.08 62.35C170.45 61.72 171.69 61.2 171.84 61.2C172 61.2 173.26 60.66 174.66 60C176.06 59.34 177.4 58.8 177.64 58.8C177.88 58.8 178.55 58.54 179.14 58.22C179.72 57.9 180.92 57.35 181.8 56.98C182.68 56.62 184.14 55.98 185.04 55.56C185.95 55.14 186.97 54.8 187.32 54.8C187.67 54.8 188.05 54.64 188.17 54.45C188.29 54.25 189 53.98 189.75 53.84C190.51 53.69 191.34 53.31 191.61 52.99C191.88 52.66 192.36 52.4 192.67 52.4C192.99 52.4 194.09 52.01 195.12 51.53C196.16 51.06 197.81 50.35 198.8 49.97C201.48 48.93 201.56 48.94 205.6 50.72ZM198.22 52.77C198.09 52.97 197.41 53.27 196.71 53.42C196 53.58 195.15 53.85 194.81 54.04C193.79 54.6 190.46 56 190.16 56C190 56 188.74 56.54 187.34 57.2C185.94 57.86 184.57 58.4 184.29 58.4C184.01 58.4 183.42 58.64 182.99 58.93C182.56 59.22 181.3 59.78 180.2 60.17C179.1 60.57 177.48 61.22 176.6 61.61C175.72 62.01 174.28 62.62 173.4 62.97C172.52 63.33 171.29 63.89 170.67 64.21C170.04 64.53 169.26 64.8 168.93 64.8C168.6 64.8 167.85 65.06 167.26 65.38C165.93 66.1 163.68 67.06 162.5 67.39C160.73 67.91 162 69.59 164.66 70.25C165.29 70.4 166.16 70.75 166.6 71.02C167.04 71.28 168.3 71.82 169.4 72.21C170.5 72.59 172.21 73.26 173.2 73.69C174.19 74.12 175.36 74.63 175.8 74.81C176.24 75 177.44 75.53 178.48 75.98C179.51 76.43 180.48 76.8 180.64 76.8C180.79 76.8 182.06 77.34 183.46 78C184.86 78.66 186.26 79.2 186.58 79.2C186.89 79.2 187.26 79.38 187.4 79.6C187.86 80.34 188.38 80.01 191.11 77.3C193.29 75.13 194.33 74.42 196.41 73.68C197.84 73.18 199.27 72.62 199.6 72.44C200.23 72.1 200.73 56.62 200.2 53.7C199.97 52.42 198.78 51.86 198.22 52.77ZM202.6 52.86C202.05 54.3 202.6 72.11 203.2 72.4C205.14 73.32 206.71 73.98 207.51 74.2C208.01 74.34 209.75 75.69 211.37 77.2L214.32 79.93L216.04 79.34C216.98 79.02 218.66 78.33 219.78 77.81C220.89 77.3 222.25 76.75 222.8 76.59C223.35 76.43 223.99 76.15 224.23 75.96C224.47 75.77 225.86 75.16 227.33 74.61C228.8 74.06 230.31 73.44 230.7 73.25C231.09 73.05 232.21 72.57 233.2 72.18C234.19 71.8 235.73 71.15 236.63 70.74C237.52 70.33 238.52 70 238.86 70C239.19 70 239.88 69.56 240.39 69.01L241.32 68.02L239.56 67.27C238.59 66.85 236.96 66.13 235.92 65.66C234.89 65.19 233.8 64.8 233.51 64.8C233.22 64.8 232.62 64.56 232.19 64.26C231.75 63.96 230.31 63.34 228.98 62.89C227.66 62.43 226.03 61.79 225.38 61.45C224.73 61.12 223.48 60.56 222.6 60.2C221.72 59.85 220.52 59.3 219.94 58.98C219.35 58.66 218.65 58.4 218.38 58.4C218.1 58.4 216.74 57.86 215.34 57.2C213.94 56.54 212.61 56 212.37 56C212.14 56 210.94 55.54 209.71 54.98C208.48 54.41 206.73 53.68 205.84 53.35C203.05 52.33 202.82 52.29 202.6 52.86ZM161.03 71.21C159.64 71.78 159.68 73.71 161.11 76.27C161.38 76.75 161.61 77.47 161.62 77.87C161.63 78.27 162.09 79.86 162.65 81.4C163.21 82.94 163.88 85.05 164.14 86.09C164.66 88.17 165.66 89.6 166.58 89.6C167.62 89.6 170.17 90.97 170.96 91.94C171.86 93.06 174.65 92.81 180.2 91.11C181.3 90.77 183.09 90.29 184.18 90.03C187.07 89.34 187.2 89.15 187.2 85.56C187.2 82.01 187.13 81.92 183.4 80.58C182.3 80.18 181.04 79.62 180.61 79.33C180.18 79.04 179.59 78.8 179.31 78.8C179.03 78.8 177.66 78.26 176.26 77.6C174.87 76.94 173.59 76.4 173.44 76.4C173.19 76.4 172.09 75.94 168.6 74.4C168.16 74.21 166.28 73.41 164.43 72.63C162.58 71.84 161.05 71.2 161.03 71.21ZM240 71.8C239.45 72.11 238.71 72.38 238.35 72.39C237.99 72.39 237.47 72.67 237.2 73C236.93 73.33 236.44 73.6 236.11 73.6C235.79 73.6 234.95 73.86 234.26 74.17C230.92 75.69 229.22 76.4 228.96 76.4C228.81 76.4 227.53 76.94 226.14 77.6C224.74 78.26 223.35 78.8 223.05 78.8C222.75 78.8 222.27 79.07 222 79.4C221.73 79.73 221.21 80 220.85 80C220.49 80 219.68 80.27 219.05 80.6C218.42 80.93 217.66 81.2 217.35 81.2C215.75 81.2 215.4 82.41 215.4 87.94L215.4 93.28L217.8 94.59C219.12 95.31 220.83 96.28 221.6 96.74C224.08 98.24 224.93 98.51 225.39 97.92C226.49 96.5 230.57 94.81 232.91 94.8C233.76 94.8 234.11 94.54 234.41 93.7C234.63 93.09 235.07 92.12 235.4 91.54C235.73 90.95 236 90.19 236 89.85C236 89.22 236.83 87.12 237.85 85.14C238.15 84.55 238.4 83.83 238.4 83.54C238.4 82.93 240.15 78.52 240.54 78.12C240.68 77.98 240.81 77.49 240.81 77.03C240.82 76.58 241.18 75.48 241.6 74.6C242.55 72.64 242.59 71.76 241.77 71.44C241.01 71.15 241.21 71.11 240 71.8ZM155.41 76C155.25 76.55 154.6 78.13 153.96 79.5C153.32 80.88 152.8 82.3 152.8 82.67C152.8 83.04 152.56 83.62 152.26 83.97C151.97 84.32 151.31 85.77 150.79 87.2C150.28 88.63 149.62 90.16 149.33 90.59C149.04 91.02 148.8 91.61 148.8 91.89C148.8 92.17 148.26 93.54 147.6 94.94C146.94 96.33 146.4 97.68 146.4 97.93C146.4 98.32 145.47 100.42 144.37 102.5C144.17 102.88 144 103.42 144 103.7C144 103.98 143.64 104.88 143.2 105.7C141.14 109.56 144.71 108.79 150.6 104.11C150.82 103.94 151.45 103.57 152 103.29C157.28 100.64 160.46 97.98 160.15 96.46C159.91 95.22 160.64 92 161.17 92C162.87 92 162.98 87.19 161.35 84.6C161.07 84.16 160.72 83.03 160.57 82.09C160.42 81.15 160.14 80.29 159.95 80.17C159.76 80.05 159.6 79.56 159.6 79.08C159.6 78.59 159.35 77.73 159.05 77.16C158.76 76.59 158.39 75.47 158.24 74.68C157.79 72.28 156.3 72.98 155.41 76ZM244.56 73.9C244.43 74.5 243.99 75.72 243.59 76.6C243.18 77.48 242.54 79.19 242.17 80.4C241.79 81.61 241.36 82.78 241.21 83C241.06 83.22 240.61 84.3 240.22 85.4C239.82 86.5 239.26 87.94 238.97 88.6C236.6 93.95 236.38 95.72 237.91 97.33C239.53 99.04 240.4 100.87 240.4 102.55C240.4 104.32 241.8 105.41 244.61 105.81C245.7 105.97 247.05 106.32 247.6 106.58C248.15 106.85 250.04 107.39 251.8 107.78C253.56 108.17 255.63 108.73 256.4 109.03C261.27 110.86 261.77 110.19 259.42 105C258.15 102.21 256.4 97.87 256.4 97.53C256.4 97.32 256.03 96.31 255.58 95.28C255.13 94.25 254.6 93.04 254.41 92.6C254.23 92.16 253.72 90.99 253.3 90C252.87 89.01 252.2 87.39 251.82 86.4C251.43 85.41 250.96 84.28 250.75 83.9C250.56 83.52 249.96 82.08 249.44 80.7C248.91 79.33 248.2 77.66 247.84 77C247.49 76.34 247.2 75.51 247.2 75.16C247.2 74.81 246.86 74.14 246.45 73.66C245.45 72.5 244.87 72.58 244.56 73.9ZM185 92.21C181.97 93.12 179.79 93.66 177.8 93.99C174.77 94.5 172.83 95.47 172.34 96.71C172.1 97.31 171.57 98.54 171.15 99.44C170.19 101.54 170.16 101.29 171.76 104.59C174.36 109.96 176.75 115.01 177.75 117.27L178.76 119.53L182.38 119.39C184.37 119.31 186.17 119.14 186.38 119.01C186.82 118.74 188.8 114.94 188.8 114.38C188.8 114.18 189.43 112.67 190.2 111.03C190.97 109.38 191.6 107.84 191.6 107.6C191.6 107.36 192.12 106.05 192.75 104.68C194.63 100.63 194.68 99.86 193.12 98.75C191.39 97.53 190.63 96.64 189.17 94.14C187.81 91.8 187.24 91.54 185 92.21ZM211.66 96.99C210.96 97.76 209.94 98.68 209.39 99.04C208.15 99.86 208.31 101.32 210.06 105.04C210.69 106.38 211.2 107.61 211.2 107.76C211.2 107.92 211.57 108.89 212.02 109.92C212.47 110.95 213 112.16 213.19 112.6C213.37 113.04 213.88 114.21 214.3 115.2C214.73 116.19 215.4 117.81 215.79 118.8C217.82 123.91 218.44 124.68 220.2 124.24C221.15 124 223.2 120.79 223.2 119.55C223.2 119.28 223.44 118.78 223.72 118.43C224.01 118.08 224.57 116.99 224.96 116C225.35 115.01 225.92 113.69 226.23 113.07C226.99 111.56 226.95 111.06 226 110.2C224.28 108.64 223.2 106.03 223.2 103.42C223.2 100.61 222.76 100 219.6 98.42C218.61 97.92 217.08 97.1 216.2 96.59C213.97 95.3 213.13 95.38 211.66 96.99ZM158.19 102.2C156.66 103.19 155.04 104.16 154.6 104.36C153.1 105.05 144.6 110.71 143.7 111.62C142.46 112.87 142.5 112.94 145.1 113.96C147.7 114.98 150.66 116.27 151.69 116.83C152.08 117.03 152.6 117.2 152.85 117.2C153.1 117.2 154.05 117.54 154.96 117.96C155.86 118.38 158.04 119.29 159.8 119.99C163.64 121.52 165.42 122.28 166.93 123.03C167.56 123.35 168.37 123.6 168.74 123.6C169.12 123.6 169.78 123.85 170.22 124.16C173.18 126.23 177.26 121.44 175.42 118.06C175.1 117.48 173.21 113.63 171.23 109.5L167.62 102L166.11 101.99C165.28 101.98 163.88 101.63 163 101.2C160.96 100.22 161.41 100.12 158.19 102.2ZM198.2 101C197.04 100.7 196.61 101.13 195.6 103.6C195.1 104.81 194.36 106.53 193.95 107.43C193.54 108.32 193.2 109.32 193.2 109.65C193.2 109.97 193.04 110.41 192.84 110.62C192.64 110.83 191.62 113.15 190.58 115.77L188.68 120.54L189.86 121.59C191.75 123.28 193.09 125.27 193.58 127.09C194.22 129.52 194.56 129.6 203.88 129.6C212.56 129.6 214 129.34 214 127.77C214 127.45 214.36 126.88 214.8 126.51C215.83 125.63 215.83 123.75 214.8 122.2C214.36 121.54 214 120.77 214 120.48C214 120.19 213.46 118.87 212.8 117.54C212.14 116.21 211.6 114.93 211.6 114.7C211.6 114.47 211.06 113.14 210.4 111.74C209.74 110.34 209.2 108.96 209.2 108.67C209.2 108.39 208.94 107.8 208.61 107.38C208.29 106.95 208.02 106.33 208.01 106C208 105.67 207.73 104.88 207.4 104.25C207.07 103.62 206.8 102.89 206.8 102.62C206.8 101.36 205.35 100.73 203.56 101.21C202.61 101.47 201.2 101.57 200.42 101.44C199.64 101.31 198.64 101.11 198.2 101ZM239 108.88C236.59 111.54 236.15 111.76 232.72 111.99L229.5 112.2L228.18 114.8C221.77 127.33 222.59 129.38 231.99 124.35C232.76 123.94 233.62 123.6 233.89 123.6C234.17 123.6 235.54 123.06 236.94 122.4C238.34 121.74 239.7 121.2 239.98 121.2C240.25 121.2 240.95 120.94 241.54 120.62C242.12 120.3 243.32 119.75 244.2 119.39C245.08 119.02 246.54 118.38 247.44 117.96C248.35 117.54 249.29 117.2 249.55 117.2C249.8 117.2 250.32 117.03 250.71 116.83C251.09 116.62 252.21 116.1 253.2 115.68C259.6 112.94 259.83 112.68 256.78 111.71C254.04 110.85 250.81 110 248.6 109.56C247.5 109.34 246.06 108.92 245.4 108.62C242.55 107.34 240.31 107.43 239 108.88ZM142.99 119C143.53 120.1 143.98 121.23 143.99 121.5C143.99 121.78 144.17 122.32 144.37 122.7C145.63 125.09 146.4 126.92 146.4 127.54C146.4 127.93 146.66 128.6 146.99 129.02C147.31 129.45 147.58 130.03 147.59 130.3C147.59 130.57 148.13 131.92 148.77 133.3C149.42 134.68 150.32 136.79 150.79 138C151.25 139.21 151.88 140.74 152.18 141.4C152.49 142.06 153.4 144.22 154.19 146.2C154.99 148.18 155.81 150.16 156.01 150.6C156.22 151.04 156.57 151.91 156.79 152.53C157.46 154.36 158.45 153.66 166.28 145.86C173.64 138.53 174.31 137.57 173.04 136.29C172.2 135.46 171.6 132.91 171.6 130.14C171.6 127.4 171.33 127.11 167.2 125.46C166.21 125.06 164.86 124.46 164.2 124.13C163.54 123.8 162.19 123.25 161.2 122.92C160.21 122.6 158.63 121.98 157.7 121.56C156.76 121.14 155.15 120.43 154.1 119.97C153.06 119.52 151.89 118.98 151.5 118.78C151.12 118.57 150.62 118.4 150.38 118.4C150.01 118.4 149.07 118.02 145.4 116.4C142.07 114.94 141.37 115.7 142.99 119ZM258.4 115.87C257.25 116.26 254.99 117.25 253.94 117.82C253.35 118.14 252.6 118.4 252.27 118.4C251.94 118.4 251.16 118.65 250.53 118.97C249.91 119.28 248.77 119.79 248 120.11C247.23 120.43 245.97 120.97 245.2 121.31C244.43 121.65 242.72 122.34 241.4 122.85C240.08 123.36 238.65 124 238.21 124.28C237.78 124.57 237.18 124.8 236.89 124.8C236.59 124.8 235.27 125.34 233.94 126C232.61 126.66 231.34 127.2 231.13 127.2C230.44 127.2 226.54 129.12 225.86 129.79C225.41 130.25 225.2 131.14 225.2 132.58L225.2 134.71L230.02 139.45C232.67 142.06 236.85 146.22 239.32 148.7C244.16 153.56 245.28 154.13 246.02 152.1C246.24 151.5 246.58 150.64 246.77 150.2C246.97 149.76 247.78 147.78 248.58 145.8C249.38 143.82 250.27 141.66 250.57 141C250.86 140.34 251.41 138.99 251.79 138C252.16 137.01 252.71 135.66 253.01 135C253.3 134.34 253.84 133.08 254.21 132.2C254.57 131.32 255.22 129.86 255.64 128.96C256.06 128.05 256.4 127.12 256.4 126.89C256.4 126.66 256.94 125.27 257.6 123.8C258.26 122.33 258.8 120.93 258.8 120.69C258.8 120.45 259.18 119.47 259.64 118.52C260.1 117.56 260.38 116.52 260.25 116.19C260.02 115.59 259.49 115.5 258.4 115.87ZM203.76 132.01C194.24 132 193.6 132.14 193.6 134.24C193.6 135.26 191.05 139.02 189.79 139.84C188.52 140.67 188.54 141.09 190 144.2C190.66 145.61 191.2 146.94 191.2 147.16C191.2 147.37 191.74 148.71 192.4 150.14C193.06 151.56 193.6 152.86 193.6 153.03C193.6 153.19 194.05 154.28 194.61 155.46C195.16 156.63 195.72 158.13 195.86 158.78C195.99 159.44 196.34 160.19 196.65 160.44C196.95 160.69 197.2 161.16 197.2 161.47C197.2 162.04 198.37 164.92 199.36 166.8C199.65 167.35 200.01 168.29 200.15 168.9C200.35 169.73 200.66 170 201.4 170C202.15 170 202.45 169.73 202.64 168.9C202.78 168.29 203.41 166.68 204.04 165.3C204.68 163.92 205.2 162.57 205.2 162.29C205.2 162.01 205.46 161.41 205.78 160.95C206.1 160.5 206.75 158.97 207.24 157.56C207.72 156.15 208.36 154.65 208.66 154.21C208.96 153.78 209.2 153.19 209.2 152.91C209.2 152.63 209.74 151.26 210.4 149.86C211.06 148.47 211.6 147.19 211.6 147.03C211.6 146.86 212.12 145.61 212.75 144.24C213.38 142.87 214.03 141.19 214.18 140.5C214.33 139.82 214.71 139.04 215.03 138.78C216.28 137.73 215.02 133.55 213.08 132.31C212.81 132.15 208.62 132.01 203.76 132.01ZM222.01 136.44C219.68 136.5 218.07 137.13 217.79 138.1C217.64 138.6 217 140.13 216.36 141.5C215.72 142.88 215.2 144.23 215.2 144.51C215.2 144.79 214.95 145.38 214.65 145.81C214.35 146.25 213.97 147.05 213.81 147.6C213.64 148.15 212.98 149.72 212.35 151.08C211.72 152.45 211.2 153.74 211.2 153.95C211.2 154.16 210.9 154.94 210.53 155.67C210.16 156.4 209.62 157.48 209.33 158.06C209.04 158.65 208.8 159.34 208.8 159.6C208.8 159.86 208.26 161.24 207.6 162.66C206.94 164.09 206.4 165.42 206.4 165.63C206.4 165.84 206.04 166.68 205.6 167.5C205.16 168.32 204.8 169.27 204.8 169.61C204.8 169.96 204.6 170.44 204.35 170.69C204.11 170.93 204.03 171.33 204.18 171.56C204.57 172.19 205.82 172.1 206.4 171.4C206.67 171.07 207.24 170.8 207.65 170.8C208.06 170.8 209.54 170.26 210.94 169.6C212.34 168.94 213.61 168.4 213.77 168.4C213.94 168.4 215.18 167.89 216.54 167.26C217.9 166.63 219.46 165.99 220 165.83C220.55 165.67 221.54 165.3 222.2 165C222.86 164.7 224.12 164.17 225 163.82C225.88 163.47 227.11 162.91 227.73 162.59C228.35 162.26 229.05 162 229.27 162C229.5 162 230.34 161.71 231.14 161.36C231.94 161.01 233.23 160.45 234 160.12C240.9 157.16 242.21 156.5 242.31 155.95C242.39 155.57 238.66 151.56 232.93 145.86C224.02 136.99 223.33 136.4 222.01 136.44ZM167.71 147.71C159 156.43 159.2 156.06 162.3 157.42C163.56 157.98 164.91 158.6 165.29 158.81C165.68 159.03 166.18 159.2 166.41 159.2C166.64 159.2 168 159.75 169.43 160.41C170.85 161.08 172.55 161.73 173.2 161.86C173.85 161.99 174.59 162.34 174.84 162.65C175.09 162.95 175.5 163.2 175.75 163.2C176.29 163.2 180.71 164.98 181.08 165.34C181.22 165.48 181.58 165.6 181.89 165.6C182.37 165.6 183.47 166.03 187 167.6C187.44 167.79 189.42 168.61 191.4 169.41C193.38 170.21 195.57 171.14 196.28 171.48C198.89 172.75 199.13 171.42 196.99 167.54C196.66 166.95 196.4 166.27 196.4 166.01C196.4 165.76 195.97 164.62 195.45 163.47C194.93 162.33 193.74 159.42 192.81 157C191.88 154.58 190.95 152.33 190.75 152C190.56 151.67 190.29 151.13 190.16 150.8C189.15 148.17 188.58 146.78 187.94 145.37C187.53 144.48 187.2 143.54 187.2 143.3C187.2 142.33 185.61 141.67 184.27 142.08C182.95 142.49 177.49 141.2 176.98 140.36C176.37 139.38 174.82 140.6 167.71 147.71Z" />
		<path id="path3" fill-rule="evenodd" class="shp2" d="M235.15 212.89L239.4 213L239.6 238.47C239.79 262.5 239.94 266.21 240.6 263.2C240.75 262.51 241.13 261.46 241.44 260.87C241.74 260.28 242 259.53 242.01 259.2C242.02 258.87 242.29 258.25 242.61 257.82C242.94 257.4 243.21 256.68 243.21 256.22C243.22 255.77 243.49 255.05 243.81 254.62C244.14 254.2 244.4 253.57 244.4 253.22C244.4 252.88 244.67 252.08 245 251.45C245.33 250.82 245.61 250.1 245.61 249.85C245.62 249.6 245.97 248.68 246.4 247.8C246.82 246.92 247.18 246.01 247.19 245.78C247.19 245.54 247.56 244.6 248.01 243.68L248.82 242L253.01 242C255.7 242 257.2 242.15 257.2 242.43C257.2 243.03 255.93 246.93 255.58 247.4C255.42 247.62 255.1 248.43 254.87 249.2C254.65 249.97 254.07 251.59 253.6 252.8C253.12 254.01 252.59 255.54 252.43 256.2C252.26 256.87 251.93 257.76 251.7 258.2C251.46 258.64 250.6 260.89 249.79 263.2C248.98 265.51 248.16 267.76 247.97 268.2C247.52 269.23 246.47 272.22 245.95 273.93C245.68 274.81 245.68 275.82 245.94 276.93C246.33 278.54 249.76 288.97 250.44 290.6C251.03 292 252.04 294.96 252.37 296.21C252.53 296.88 252.88 297.81 253.14 298.28C253.39 298.76 253.6 299.47 253.6 299.87C253.6 300.27 253.86 301.08 254.16 301.67C254.47 302.26 254.85 303.34 255.01 304.07C255.16 304.8 255.43 305.58 255.6 305.8C255.77 306.02 256.03 306.79 256.19 307.5C256.34 308.22 256.74 309.36 257.08 310.04C257.53 310.94 257.57 311.38 257.25 311.71C256.53 312.43 249.56 312.58 248.66 311.91C247.99 311.4 244.18 301.11 243.17 297.09C242.96 296.25 242.63 295.26 242.43 294.89C242.24 294.51 241.65 292.79 241.14 291.07C239.84 286.71 239.69 287.67 239.64 300.89L239.6 311.99L238.57 312.24C237.33 312.56 231.54 312.26 230.88 311.85C230.37 311.53 230.15 215.56 230.66 213.69C230.89 212.8 231.02 212.78 235.15 212.89ZM239 213.4L235.8 213.3C234.04 213.25 232.28 213.4 231.9 213.62C231.24 214.02 231.2 216.79 231.2 262.82L231.2 311.6L239.2 311.6L239.22 300.1C239.24 285.86 239.61 284.1 241.38 289.8C241.99 291.78 242.74 293.88 243.04 294.46C243.35 295.05 243.61 295.95 243.61 296.46C243.62 296.98 243.89 297.75 244.21 298.18C244.54 298.6 244.8 299.32 244.8 299.78C244.8 300.23 245.07 301.12 245.4 301.75C245.73 302.38 246 303.19 246 303.55C246 303.91 246.26 304.68 246.56 305.27C246.87 305.86 247.25 306.94 247.39 307.67C247.54 308.4 247.93 309.58 248.25 310.3L248.84 311.6L252.86 311.6C256.54 311.6 256.86 311.54 256.6 310.9C256.44 310.51 256.14 309.57 255.93 308.8C255.72 308.03 255.29 306.83 254.97 306.14C254.66 305.45 254.4 304.61 254.4 304.29C254.4 303.96 254.13 303.18 253.8 302.55C253.47 301.92 253.2 301.04 253.19 300.6C253.18 300.16 252.91 299.45 252.59 299.02C252.26 298.6 251.99 297.79 251.99 297.22C251.98 296.66 251.71 295.85 251.39 295.42C251.06 295 250.8 294.28 250.8 293.82C250.8 293.37 250.54 292.52 250.24 291.93C249.93 291.34 249.55 290.26 249.39 289.53C249.24 288.8 248.97 288.02 248.8 287.8C248.63 287.58 248.37 286.8 248.21 286.07C248.05 285.34 247.67 284.26 247.37 283.67C247.06 283.08 246.8 282.31 246.8 281.95C246.8 281.59 246.53 280.78 246.2 280.15C245.87 279.52 245.6 278.69 245.6 278.32C245.6 277.94 245.39 277.19 245.14 276.63C244.68 275.62 245.56 271.59 246.45 270.62C246.64 270.41 246.8 269.96 246.8 269.62C246.8 269.28 247.06 268.52 247.37 267.93C247.67 267.34 248.05 266.29 248.2 265.6C248.35 264.91 248.73 263.86 249.03 263.27C249.34 262.68 249.6 261.93 249.61 261.6C249.62 261.27 249.89 260.65 250.21 260.22C250.54 259.8 250.8 259.13 250.8 258.74C250.8 258.04 251.53 256.11 252.64 253.87C252.95 253.25 253.2 252.44 253.2 252.07C253.2 251.7 253.47 250.88 253.8 250.25C254.13 249.62 254.4 248.93 254.4 248.72C254.4 248.5 254.66 247.75 254.98 247.06C255.3 246.37 255.82 245.03 256.13 244.1L256.71 242.4L252.75 242.4C249.26 242.4 248.8 242.48 248.8 243.1C248.8 243.49 248.53 244.32 248.2 244.95C247.87 245.58 247.59 246.3 247.59 246.55C247.58 246.8 247.22 247.72 246.8 248.6C246.38 249.48 246.01 250.47 246 250.8C245.99 251.13 245.71 251.75 245.39 252.18C245.06 252.6 244.8 253.33 244.8 253.8C244.8 254.27 244.54 255 244.21 255.42C243.89 255.85 243.62 256.57 243.61 257.02C243.61 257.48 243.34 258.2 243.01 258.62C242.69 259.05 242.42 259.67 242.41 260C242.4 260.33 242.13 261.12 241.8 261.75C241.47 262.38 241.2 263.2 241.2 263.57C241.2 264.72 240.19 265.83 239.76 265.16C239.56 264.85 239.31 253.16 239.2 239L239 213.4ZM206.32 224.48C206.92 225.08 206.98 234.27 206.39 235.82L205.99 236.89L202.01 236.73C199.83 236.65 197.9 236.43 197.72 236.25C197.17 235.7 197.07 225.23 197.62 224.58C198.24 223.83 205.59 223.75 206.32 224.48ZM206 224.4L198 224.4L198 235.6L206 235.6L206 224.4ZM111.8 241.45C112.24 241.54 113.41 241.73 114.4 241.87C121.16 242.85 123.38 247.58 123.39 261L123.4 269.8L119.8 269.9C114.67 270.05 115.03 270.75 114.8 260.23C114.58 250.51 114.41 249.8 112.2 249.59C108.98 249.27 108.4 250.64 108.4 258.54C108.4 266.92 109.15 268.61 116.03 275.67C123.02 282.85 124.58 286.46 124.57 295.4C124.56 303.92 123.02 307.96 118.72 310.8L116.6 312.2L106.6 312.2L104.53 310.8C102.41 309.37 101.15 307.82 99.83 305.01C98.91 303.07 98.37 287.07 99.15 285.08L99.59 283.97L107 284.2L107.22 292.8C107.47 302.54 107.81 303.84 110.34 304.5C114.03 305.45 114.86 303.61 114.7 294.8C114.55 286.36 114.58 286.45 108.18 279.62C103.95 275.11 100.8 271.24 100.8 270.56C100.8 270.36 100.52 269.67 100.17 269.01C98.93 266.62 98.43 258.04 99.19 252.15C99.92 246.6 103.41 242.74 108.6 241.74C109.92 241.49 111.36 241.35 111.8 241.45ZM290.55 241.25C294.4 240.72 300.36 244.01 302.5 247.85C303.27 249.24 304.24 278.45 303.53 278.88C303.46 278.92 299.89 279.06 295.6 279.18L287.8 279.4L287.68 290C287.53 303.35 288.07 305.38 291.55 304.61C293.99 304.07 294.19 303.25 294.34 292.54L294.47 282.89L295.69 282.64C298.08 282.16 302.68 282.37 303.18 282.98C303.22 283.02 303.25 283.1 303.29 283.2L294.8 283.2L294.78 291.9C294.75 303.7 294.16 305.64 290.64 305.59C287.37 305.54 286.77 303.05 286.89 289.99L287 279L303 278.6L302.98 264.6C302.97 247.69 302.56 246.25 296.92 243.31C291.06 240.25 283.06 242.56 280.1 248.17L279.02 250.2L278.88 272.6C278.72 295.97 278.95 304.48 279.76 305.31C280.02 305.58 280.67 306.52 281.2 307.4C282.36 309.32 282.85 309.75 285.2 310.91C287.58 312.09 295.07 312.2 296.31 311.08C296.73 310.71 297.18 310.4 297.33 310.4C297.99 310.4 301.59 306.85 301.6 306.2C301.6 305.98 301.9 305.26 302.27 304.6C302.83 303.6 302.96 301.74 303.11 293.3L303.29 283.21C303.55 284.09 303.62 287.12 303.53 293.88L303.4 304.2L302.29 306.31C300.85 309.04 297.19 311.83 294.54 312.23C285.18 313.63 279.58 309.94 278.42 301.6C277.83 297.45 278.05 253.21 278.67 250.4C279.64 245.95 283.17 242.59 287.75 241.75C289.1 241.5 290.36 241.28 290.55 241.25ZM172.6 247.45C173.56 250.26 173.88 304.88 172.95 306.04C172.7 306.35 172.37 307.16 172.23 307.84C171.93 309.24 169.91 311.5 168.48 312.04C165.92 313.02 158.8 311.79 158.8 310.38C158.8 310.22 158.44 310 158 309.88C157.21 309.68 157.2 309.87 157.2 322.19C157.2 332.81 157.11 334.78 156.6 335.2C155.73 335.92 148.48 335.57 147.98 334.78C147.57 334.14 147.44 243.68 147.84 242.63C148.23 241.63 153.08 241.67 155.04 242.4L152.03 242.4C150.33 242.4 148.81 242.52 148.67 242.67C148.01 243.32 148.37 334.3 149.03 334.56C149.38 334.69 151.17 334.8 153.02 334.8L156.37 334.8L156.48 322.02C156.62 307.44 156.53 307.76 159.56 310.12C162.08 312.08 167.42 312.64 168.96 311.1C169.34 310.71 169.78 310.4 169.94 310.4C170.28 310.4 171.34 308.4 172.27 306C173.47 302.88 173.57 253.57 172.38 249.34C170.79 243.67 169.36 242.4 164.58 242.4C161.51 242.4 159.51 243.18 158.04 244.95C156.98 246.23 155.7 245.77 155.4 244L155.14 242.44C155.53 242.6 155.78 242.79 155.84 243C156.28 244.75 157.18 244.87 158.98 243.4C159.87 242.68 160.96 242 161.4 241.89C166.81 240.56 170.96 242.62 172.6 247.45ZM102.33 246.15C102.08 246.62 101.75 247.09 101.58 247.2C98 249.63 99.13 268.57 103.09 272.73C103.37 273.02 103.61 273.38 103.61 273.53C103.62 273.81 105.73 276.15 110.22 280.87C114.97 285.88 115.64 287.63 115.86 295.6C116.05 302.97 113.93 306.5 110.06 305.22C107.28 304.3 107.03 303.38 106.8 293.6L106.6 285L99.8 285L99.8 303.4L101.11 306.01C102.23 308.23 102.78 308.84 104.91 310.19L107.4 311.76L111.97 311.77C115.24 311.78 116.58 311.64 116.7 311.29C116.79 311.02 117.09 310.8 117.36 310.8C118.37 310.8 120.55 308.76 121.94 306.52L123.38 304.2L123.39 295.57C123.4 285.15 123.79 286.28 117.4 278.12C116.96 277.56 115.61 276.08 114.39 274.85C113.18 273.61 111.63 271.88 110.94 271C105.23 263.63 106.93 245.82 113.04 249.03C115.59 250.38 116 252.01 116 260.8C116 264.94 116.11 268.62 116.24 268.97C116.64 269.99 121.35 269.85 122.42 268.78C123.92 267.28 123.02 249.92 121.34 247.97C121.05 247.62 120.8 247.16 120.8 246.93C120.8 246.35 117.95 243.92 116.36 243.13C112.05 241 104.14 242.7 102.33 246.15ZM202.18 242.09L206.6 242.2L206.7 276.76C206.78 303.45 206.69 311.45 206.32 311.9C205.79 312.53 198.72 312.5 197.7 311.86C197.15 311.52 196.93 242.8 197.48 242.25C197.63 242.1 199.75 242.03 202.18 242.09ZM303.29 283.21C303.29 283.21 303.29 283.2 303.29 283.2L303.29 283.2L303.29 283.21ZM155.14 242.44C155.1 242.43 155.07 242.41 155.04 242.4L155.13 242.4L155.14 242.44ZM206 242.4L198 242.4L198 311.6L206 311.6L206 242.4ZM164.16 250.97C165.13 253.02 165.13 300.98 164.16 303.03C162.85 305.79 159.26 305.98 158.04 303.34C157.8 302.82 157.38 301.92 157.1 301.34C156.72 300.53 156.6 294.72 156.6 276.64C156.6 250.27 156.52 251.07 159.43 249.21C161.25 248.05 163.1 248.74 164.16 250.97ZM292.34 249.03C294.55 250.13 294.6 250.44 294.6 262.2L294.6 273L291.26 273.12C289.14 273.19 287.72 273.06 287.36 272.77C286.72 272.23 286.51 252.63 287.15 252.23C287.34 252.11 287.6 251.51 287.72 250.89C287.87 250.14 288.38 249.55 289.27 249.11C290.95 248.28 290.84 248.28 292.34 249.03ZM157.8 253.04C156.97 255.8 156.94 296.46 157.78 300.35C158.94 305.78 163.44 305.96 164.21 300.61C164.77 296.78 164.22 251.83 163.61 250.91C161.8 248.18 158.96 249.22 157.8 253.04ZM289.68 249.82C287.81 250.61 287.57 252.16 287.69 262.87L287.8 272.2L294.2 272.2L294.2 261.93C294.2 251.72 294.19 251.66 293.27 250.67C292.06 249.39 291.2 249.18 289.68 249.82Z" />
		<path id="path4" fill-rule="evenodd" class="shp3" d="M203 48.8C203.14 49.02 203.53 49.2 203.88 49.2C204.23 49.2 205.25 49.54 206.16 49.96C207.06 50.37 208.61 51.04 209.6 51.43C210.59 51.83 211.68 52.39 212.03 52.67C212.38 52.96 213.06 53.2 213.54 53.2C214.02 53.2 215.43 53.74 216.66 54.4C217.9 55.06 219.18 55.6 219.5 55.6C219.82 55.6 220.65 55.86 221.34 56.17C222.03 56.48 223.5 57.13 224.6 57.59C225.7 58.06 227.19 58.71 227.9 59.02C228.62 59.34 229.78 59.86 230.5 60.17C231.22 60.49 232.21 60.86 232.7 61C233.19 61.14 233.6 61.42 233.6 61.63C233.6 61.83 233.98 62 234.44 62C234.9 62 235.85 62.26 236.54 62.57C237.23 62.88 238.7 63.52 239.8 63.98C240.9 64.44 242.31 65.08 242.93 65.41C243.56 65.73 244.31 66 244.6 66C245.56 66 247.6 68.03 247.6 68.99C247.6 69.49 247.87 70.13 248.2 70.4C248.53 70.67 248.81 71.19 248.81 71.55C248.82 71.91 249.09 72.55 249.41 72.98C249.74 73.4 250 74.15 250 74.63C250 75.11 250.27 75.73 250.6 76C250.93 76.27 251.2 76.7 251.2 76.95C251.2 77.2 251.47 77.9 251.79 78.52C252.11 79.13 252.49 80.26 252.63 81.02C252.77 81.78 253.04 82.4 253.22 82.4C253.4 82.4 253.66 82.81 253.8 83.3C254.06 84.23 254.92 86.21 255.86 88.06C256.16 88.65 256.4 89.34 256.4 89.6C256.4 89.86 256.94 91.24 257.6 92.66C258.26 94.09 258.8 95.47 258.81 95.73C258.81 95.99 259.35 97.26 260 98.56C260.66 99.85 261.2 101.09 261.2 101.31C261.2 101.7 262.36 104.36 263.45 106.46C263.75 107.05 264 107.84 264 108.23C264 108.62 264.31 109.28 264.69 109.69C265.55 110.65 265.63 114.4 264.8 115.4C264.22 116.1 263.31 118.28 262.92 119.89C262.81 120.38 262.46 120.98 262.16 121.24C261.85 121.49 261.6 121.96 261.6 122.29C261.6 122.95 260.75 125.04 259.58 127.28C259.15 128.09 258.8 129.05 258.8 129.4C258.8 129.75 258.26 131.13 257.6 132.46C256.94 133.79 256.4 135.2 256.4 135.59C256.4 135.98 256.13 136.53 255.8 136.8C255.47 137.07 255.2 137.56 255.2 137.89C255.2 138.47 254.69 139.75 253.16 143.04C252.74 143.95 252.4 144.86 252.4 145.07C252.4 145.28 251.86 146.51 251.2 147.8C250.54 149.09 250 150.37 250 150.64C250 150.91 249.7 151.74 249.33 152.47C248.04 155.04 247.71 155.81 247.47 156.8C247.2 157.87 244.61 159.6 243.27 159.6C242.84 159.6 242.27 159.87 242 160.2C241.73 160.53 241.2 160.8 240.83 160.8C240.46 160.8 239.8 161.06 239.38 161.39C238.95 161.71 238.28 161.98 237.88 161.99C237.48 161.99 236.49 162.35 235.68 162.78C233.53 163.9 231.36 164.8 230.74 164.81C230.44 164.82 229.85 165.09 229.42 165.41C229 165.74 228.35 166 227.98 166C227.61 166 226.3 166.54 225.06 167.2C223.83 167.86 222.56 168.4 222.25 168.4C221.94 168.4 220.63 168.92 219.34 169.55C218.05 170.19 216.43 170.83 215.73 170.98C215.03 171.13 214.24 171.51 213.98 171.83C213.72 172.14 213.12 172.41 212.65 172.41C212.18 172.42 211.45 172.69 211.02 173.01C210.6 173.34 209.85 173.6 209.37 173.6C208.89 173.6 208.27 173.87 208 174.2C207.73 174.53 207.3 174.8 207.05 174.8C206.8 174.8 205.46 175.28 204.07 175.87C201.15 177.11 201.39 177.15 195 174.42C193.9 173.95 192.49 173.3 191.87 172.98C191.25 172.66 190.41 172.4 190.02 172.4C189.62 172.4 189.08 172.14 188.82 171.83C188.56 171.51 187.77 171.13 187.07 170.97C186.37 170.82 184.7 170.18 183.36 169.55C182.02 168.92 180.78 168.4 180.6 168.4C180.42 168.4 179.13 167.86 177.74 167.2C176.34 166.54 174.96 166 174.68 166C174.39 166 173.8 165.74 173.38 165.41C172.95 165.09 172.33 164.81 172 164.8C171.67 164.78 170.68 164.43 169.8 164C168.92 163.57 168 163.22 167.75 163.21C167.5 163.21 167.07 162.93 166.8 162.6C166.53 162.27 165.91 162 165.42 162C164.94 162 163.49 161.46 162.2 160.8C160.91 160.14 159.54 159.6 159.16 159.6C158.77 159.6 158.22 159.37 157.93 159.09C157.64 158.82 156.91 158.37 156.3 158.1C155.69 157.84 155.2 157.33 155.2 156.97C155.2 156.62 154.96 155.85 154.67 155.26C154.38 154.68 153.84 153.6 153.47 152.87C153.1 152.13 152.8 151.34 152.8 151.11C152.8 150.7 151.66 148.09 150.55 145.94C150.25 145.35 150 144.52 150 144.09C150 143.65 149.73 143.07 149.4 142.8C149.07 142.53 148.8 142.13 148.8 141.91C148.8 141.52 148.17 139.98 146.76 136.96C146.34 136.05 146 134.93 146 134.46C146 133.99 145.82 133.6 145.61 133.6C145.39 133.6 145.09 133.1 144.95 132.5C144.8 131.9 144.44 131.04 144.14 130.61C143.84 130.18 143.6 129.45 143.6 128.99C143.6 128.53 143.39 127.95 143.13 127.69C142.63 127.19 141.67 124.82 141.31 123.2C141.19 122.65 140.88 121.93 140.61 121.6C140.35 121.27 139.71 119.83 139.19 118.4C138.68 116.97 137.99 115.39 137.68 114.89C137.04 113.89 137.19 110.11 137.89 109.66C138.11 109.52 138.42 108.95 138.58 108.4C138.85 107.45 139.41 106.07 140.59 103.4C140.89 102.74 141.45 101.39 141.84 100.4C142.23 99.41 142.79 98.32 143.07 97.97C143.36 97.62 143.6 96.95 143.6 96.47C143.6 95.99 143.96 94.92 144.4 94.1C144.84 93.28 145.2 92.38 145.2 92.11C145.2 91.83 145.38 91.6 145.6 91.6C145.82 91.6 146 91.23 146 90.78C146 90.33 146.63 88.62 147.4 86.97C148.17 85.33 148.8 83.74 148.8 83.44C148.8 83.14 149.07 82.67 149.4 82.4C149.73 82.13 150 81.55 150 81.11C150 80.68 150.25 79.85 150.55 79.26C151.62 77.19 152.8 74.51 152.8 74.13C152.8 73.92 153.33 72.71 153.97 71.45C154.62 70.18 155.21 68.77 155.28 68.3C155.39 67.53 159.77 64.8 160.88 64.8C161.21 64.8 162.74 64.17 166.26 62.57C166.95 62.26 167.79 62 168.11 62C168.44 62 168.93 61.73 169.2 61.4C169.47 61.07 169.94 60.8 170.24 60.8C170.53 60.8 171.45 60.5 172.29 60.13C173.77 59.48 175.42 58.77 178.6 57.43C179.48 57.06 180.68 56.5 181.26 56.18C181.85 55.86 182.79 55.6 183.36 55.6C183.93 55.6 184.4 55.42 184.4 55.21C184.4 54.99 184.9 54.7 185.5 54.55C186.1 54.4 186.96 54.04 187.39 53.74C187.82 53.44 188.48 53.2 188.85 53.2C189.22 53.2 190.61 52.66 191.94 52C193.27 51.34 194.5 50.8 194.68 50.8C194.96 50.8 197.41 49.69 199.2 48.76C200.07 48.3 202.71 48.33 203 48.8ZM199.8 49.59C199.36 49.77 197.56 50.49 195.8 51.2C194.04 51.9 192.28 52.64 191.9 52.84C191.51 53.04 189.99 53.66 188.5 54.21C187.01 54.76 185.26 55.47 184.6 55.78C183.94 56.09 182.68 56.63 181.8 56.99C180.92 57.35 179.72 57.9 179.14 58.22C178.55 58.54 177.82 58.8 177.51 58.8C177.2 58.8 175.89 59.34 174.6 60C173.31 60.66 172.01 61.2 171.71 61.2C171.41 61.2 170.49 61.55 169.68 61.98C168.87 62.4 167.48 63.04 166.6 63.4C165.72 63.75 164.52 64.3 163.94 64.62C163.35 64.94 162.54 65.21 162.14 65.21C161.73 65.22 161.05 65.49 160.62 65.81C160.2 66.14 159.62 66.4 159.35 66.4C158.22 66.4 156.04 68.23 155.78 69.4C155.63 70.06 155.28 70.87 155 71.2C154.72 71.53 154.36 72.25 154.2 72.8C154.03 73.35 153.38 74.92 152.75 76.28C152.12 77.65 151.6 78.96 151.6 79.19C151.6 79.42 151.43 79.92 151.23 80.31C150.19 82.27 149.2 84.47 149.2 84.81C149.2 85.02 148.66 86.34 148 87.74C147.34 89.14 146.8 90.49 146.8 90.76C146.8 91.03 146.46 91.91 146.04 92.72C145.62 93.53 145.06 94.74 144.79 95.4C144.53 96.06 143.99 97.32 143.59 98.2C143.2 99.08 142.57 100.61 142.19 101.6C141.82 102.59 141.26 103.88 140.96 104.46C140.65 105.05 140.4 105.72 140.4 105.96C140.4 106.2 139.86 107.54 139.2 108.94C138.54 110.33 138 111.94 138 112.51C138 113.08 138.54 114.71 139.2 116.14C139.86 117.56 140.4 118.94 140.4 119.2C140.4 119.46 140.65 120.15 140.96 120.74C141.26 121.32 141.83 122.61 142.21 123.6C142.59 124.59 143.27 126.21 143.72 127.2C144.17 128.19 144.7 129.45 144.91 130C145.11 130.55 145.62 131.67 146.04 132.48C146.46 133.29 146.8 134.22 146.8 134.55C146.8 134.87 147.05 135.65 147.37 136.27C148.13 137.8 148.9 139.6 150.42 143.4C151.13 145.16 152.13 147.5 152.64 148.6C153.16 149.7 153.86 151.39 154.19 152.37C154.53 153.34 154.96 154.33 155.15 154.56C155.34 154.8 155.61 155.5 155.75 156.11C156.01 157.2 159.37 159.2 160.93 159.2C161.24 159.2 161.73 159.47 162 159.8C162.27 160.13 162.74 160.4 163.03 160.4C163.54 160.4 164.31 160.7 168.2 162.4C169.08 162.79 170.66 163.42 171.71 163.81C172.76 164.2 173.72 164.67 173.84 164.86C173.95 165.05 174.32 165.2 174.65 165.2C175.19 165.2 176.44 165.7 180.26 167.43C180.95 167.74 181.77 168 182.08 168C182.39 168 182.81 168.16 183.02 168.36C183.23 168.56 184.39 169.11 185.6 169.59C186.81 170.07 188.52 170.79 189.4 171.2C190.28 171.6 192.44 172.51 194.2 173.21C195.96 173.91 198.17 174.84 199.12 175.28C200.91 176.11 201.93 176.06 204.2 175.03C204.86 174.73 206.3 174.1 207.4 173.62C208.5 173.14 209.71 172.58 210.09 172.38C210.48 172.17 211.07 172 211.41 172C211.76 172 212.71 171.65 213.52 171.22C214.33 170.8 215.72 170.16 216.6 169.81C217.48 169.46 218.71 168.91 219.33 168.59C219.96 168.26 220.65 168 220.87 168C221.09 168 222.44 167.46 223.86 166.8C225.28 166.14 226.93 165.49 227.53 165.35C228.12 165.21 228.78 164.96 229 164.8C229.22 164.64 230.65 164.01 232.17 163.41C233.7 162.81 235.23 162.17 235.57 162C235.92 161.82 237.01 161.37 238 160.98C238.99 160.6 240.52 159.97 241.4 159.6C242.28 159.23 243.76 158.6 244.69 158.2C245.68 157.78 246.49 157.14 246.63 156.64C246.77 156.18 247.21 155.08 247.6 154.2C248 153.32 248.62 151.88 248.97 151C249.33 150.12 249.89 148.89 250.21 148.27C250.53 147.65 250.8 146.97 250.8 146.78C250.8 146.58 251.43 145.07 252.2 143.43C252.97 141.78 253.6 140.25 253.6 140.01C253.6 139.78 253.77 139.28 253.99 138.9C254.57 137.84 256 134.48 256 134.16C256 134 256.54 132.74 257.2 131.34C257.86 129.94 258.4 128.57 258.4 128.3C258.4 128.03 258.75 127.08 259.17 126.2C259.6 125.32 260.24 123.88 260.6 123C260.95 122.12 261.5 120.92 261.82 120.34C262.14 119.75 262.4 119.08 262.4 118.84C262.4 118.6 262.94 117.26 263.6 115.86C264.95 113 265.06 112.03 264.2 110.36C263.87 109.72 263.33 108.68 263 108.04C262.67 107.4 262.4 106.67 262.4 106.42C262.4 106.17 261.87 104.84 261.23 103.45C260.58 102.07 259.93 100.47 259.79 99.89C259.64 99.31 259.27 98.62 258.96 98.37C258.65 98.11 258.4 97.56 258.4 97.15C258.4 96.74 257.86 95.26 257.2 93.86C256.54 92.47 256 91.1 256 90.82C256 90.55 255.74 89.85 255.42 89.26C254.66 87.87 253.73 85.65 253.38 84.4C253.23 83.85 252.89 83.13 252.63 82.8C252.38 82.47 251.83 81.21 251.42 80C251.01 78.79 250.54 77.62 250.38 77.4C250.21 77.18 249.62 75.83 249.08 74.4C248.53 72.97 247.8 71.26 247.44 70.6C247.09 69.94 246.8 69.11 246.8 68.75C246.8 68.11 241.47 65.2 240.31 65.2C240.02 65.2 239.42 64.95 238.99 64.65C238.56 64.35 237.75 63.97 237.2 63.8C236.65 63.64 235.08 62.98 233.72 62.35C232.35 61.72 231.04 61.2 230.81 61.2C230.57 61.2 229.17 60.64 227.69 59.96C222.92 57.76 222.63 57.64 220.4 56.8C217.93 55.86 215.7 54.92 214.79 54.43C214.45 54.25 213.61 53.98 212.91 53.83C212.22 53.67 211.44 53.29 211.18 52.97C210.92 52.66 210.38 52.4 209.98 52.4C209.59 52.4 208.4 51.96 207.33 51.43C206.27 50.9 204.59 50.18 203.6 49.84C201.6 49.14 200.97 49.1 199.8 49.59ZM200.4 62.82C200.4 71.49 200.17 72.8 198.63 72.8C198.09 72.8 197.54 72.97 197.41 73.19C197.27 73.4 196.42 73.78 195.51 74.02C194.32 74.35 193.11 75.22 191.15 77.19L188.44 79.92L186.75 79.34C185.81 79.02 184.12 78.31 182.99 77.78C181.85 77.24 180.79 76.8 180.62 76.8C180.46 76.8 179.75 76.54 179.06 76.23C178.37 75.92 176.9 75.28 175.8 74.82C174.7 74.36 173.29 73.72 172.67 73.39C172.04 73.07 171.35 72.8 171.13 72.8C170.75 72.8 169.4 72.26 166.6 71C165.94 70.7 164.95 70.33 164.4 70.17C161.73 69.41 160.77 67.82 162.7 67.34C163.31 67.19 164.91 66.56 166.26 65.94C167.62 65.31 168.97 64.8 169.28 64.8C169.58 64.8 170.18 64.56 170.61 64.27C171.04 63.98 172.57 63.31 174 62.8C175.43 62.27 176.69 61.74 176.8 61.6C176.91 61.46 178.17 60.92 179.6 60.41C181.03 59.89 182.56 59.22 182.99 58.93C183.42 58.64 184.15 58.4 184.61 58.4C185.07 58.4 185.61 58.24 185.82 58.04C186.03 57.84 187.37 57.2 188.8 56.61C190.23 56.03 191.94 55.31 192.6 55.02C193.26 54.72 194.69 54.18 195.77 53.82C196.85 53.46 198.02 53 198.37 52.79C200.22 51.71 200.4 52.58 200.4 62.82ZM204.18 52.77C204.31 52.97 204.98 53.26 205.68 53.42C206.38 53.57 208.07 54.22 209.44 54.85C210.81 55.48 212.14 56 212.4 56C212.66 56 213.35 56.24 213.94 56.53C214.52 56.82 215.6 57.36 216.33 57.73C217.06 58.1 217.94 58.4 218.27 58.4C218.6 58.4 219.35 58.66 219.94 58.98C220.52 59.3 221.72 59.85 222.6 60.21C223.48 60.57 224.92 61.19 225.8 61.59C229.03 63.05 230.44 63.6 230.97 63.6C231.26 63.6 231.73 63.87 232 64.2C232.27 64.53 232.81 64.8 233.2 64.8C233.59 64.8 234.91 65.25 236.14 65.79C237.37 66.33 239.04 67.06 239.84 67.39C241.61 68.13 241.05 69.2 238.45 70.04C237.65 70.29 236.55 70.73 236 71.01C235.45 71.29 234.19 71.82 233.2 72.2C232.21 72.58 230.92 73.14 230.34 73.44C229.75 73.75 229.08 74 228.85 74C228.61 74 227.07 74.63 225.43 75.4C223.78 76.17 222.31 76.8 222.16 76.8C222 76.8 220.95 77.24 219.81 77.78C218.68 78.31 216.98 79.02 216.04 79.34L214.32 79.93L211.44 77.27C209.45 75.43 207.82 74.31 206.18 73.67C204.87 73.16 203.53 72.6 203.2 72.43C202.61 72.12 202.04 54.31 202.58 52.91C202.81 52.32 203.85 52.23 204.18 52.77ZM199.5 53.21C199.44 53.21 199.13 53.39 198.8 53.6C198.47 53.81 197.79 53.99 197.3 53.99C196.81 54 196.4 54.17 196.4 54.38C196.4 54.59 195.72 54.88 194.9 55.03C194.07 55.18 193.15 55.5 192.85 55.74C192.26 56.21 189.96 57.13 188.51 57.48C188.02 57.59 187.42 57.94 187.16 58.24C186.91 58.55 186.44 58.8 186.11 58.8C185.79 58.8 184.95 59.06 184.26 59.37C180.3 61.17 179.16 61.6 178.42 61.6C177.97 61.6 177.6 61.78 177.6 61.99C177.6 62.21 177.1 62.51 176.5 62.65C175.9 62.8 175.04 63.16 174.61 63.46C174.18 63.76 173.43 64 172.96 64C172.49 64 171.87 64.27 171.6 64.6C171.33 64.93 170.88 65.2 170.6 65.2C170.07 65.2 166.72 66.54 165.4 67.29C164.96 67.53 164.1 67.84 163.48 67.97L162.37 68.2L163.79 68.89C167.49 70.68 170.31 71.81 172.29 72.28C172.78 72.39 173.38 72.74 173.64 73.04C173.89 73.35 174.42 73.6 174.81 73.6C175.2 73.6 176.61 74.14 177.94 74.8C179.27 75.46 180.59 76 180.89 76C181.18 76 181.78 76.24 182.21 76.53C183.64 77.5 187.93 78.89 188.47 78.56C188.76 78.39 189.69 77.47 190.53 76.53C191.38 75.58 192.3 74.8 192.59 74.8C192.88 74.8 193.22 74.53 193.34 74.2C193.47 73.87 193.9 73.6 194.3 73.6C194.7 73.6 195.38 73.36 195.81 73.06C196.25 72.76 197.28 72.39 198.1 72.24L199.6 71.96L199.6 62.58C199.6 57.42 199.56 53.2 199.5 53.21ZM204.48 53.88L203.2 53.62L203.2 71.91L204.98 72.35C205.95 72.6 206.86 72.98 207 73.2C207.14 73.42 207.57 73.6 207.97 73.6C208.38 73.6 209.97 74.77 211.51 76.2C214.51 78.98 214.81 79.1 216.47 78.23C217.06 77.93 218.09 77.56 218.75 77.41C219.41 77.27 220.16 76.89 220.42 76.57C220.68 76.26 221.28 75.99 221.75 75.99C222.22 75.98 222.95 75.71 223.38 75.39C223.8 75.06 224.46 74.8 224.83 74.8C225.2 74.8 225.73 74.53 226 74.2C226.27 73.87 226.83 73.6 227.24 73.6C227.87 73.6 229.57 72.89 232.05 71.59C232.41 71.41 233.35 71.13 234.15 70.98C234.95 70.83 235.6 70.55 235.6 70.36C235.6 70.16 235.82 69.99 236.1 69.99C237.21 69.96 240.65 68.01 239.59 68C239.03 68 238.22 67.76 237.79 67.47C237.35 67.18 235.83 66.52 234.4 66C232.97 65.48 231.44 64.82 231.01 64.53C230.58 64.24 229.85 64 229.39 64C228.93 64 228.2 63.74 227.78 63.41C227.35 63.09 226.71 62.82 226.35 62.81C225.99 62.81 225.47 62.53 225.2 62.2C224.93 61.87 224.44 61.6 224.13 61.6C223.61 61.6 222.34 61.09 218.54 59.37C217.85 59.06 217.01 58.8 216.69 58.8C216.36 58.8 215.87 58.53 215.6 58.2C215.33 57.87 214.84 57.6 214.51 57.6C213.91 57.6 211.91 56.81 209.87 55.78C209.25 55.46 208.53 55.2 208.27 55.2C208.01 55.2 207.34 54.96 206.78 54.66C206.22 54.37 205.19 54.02 204.48 53.88ZM165.38 73.23C165.59 73.43 166.01 73.6 166.32 73.6C166.63 73.6 167.45 73.86 168.14 74.17C171.48 75.69 173.18 76.4 173.44 76.4C173.59 76.4 174.87 76.94 176.26 77.6C177.66 78.26 179.03 78.8 179.31 78.8C179.59 78.8 180.18 79.04 180.61 79.33C181.04 79.62 182.3 80.18 183.4 80.58C187.16 81.93 187.19 81.98 187.12 85.63C187.04 89.39 186.69 89.74 182.28 90.45C180.93 90.67 179.61 91.02 179.35 91.24C179.09 91.46 177.91 91.81 176.74 92.02C171.58 92.95 171.88 92.97 170.76 91.71C170.14 91.02 168.84 90.27 167.5 89.85C165.77 89.31 165.19 88.91 164.88 88.08C164.26 86.41 163.25 83.28 162.35 80.2C161.9 78.66 161.29 76.86 160.98 76.2C160.1 74.27 159.81 71.96 160.42 71.59C160.93 71.27 164.62 72.49 165.38 73.23ZM241.07 71.22C242.39 70.83 242.65 72.44 241.6 74.6C241.18 75.48 240.82 76.58 240.81 77.03C240.81 77.49 240.68 77.98 240.54 78.12C240.15 78.52 238.4 82.93 238.4 83.54C238.4 83.83 238.15 84.55 237.85 85.14C236.83 87.12 236 89.22 236 89.85C236 90.19 235.73 90.95 235.4 91.54C235.07 92.12 234.64 93.07 234.44 93.64C234.12 94.53 233.76 94.72 231.99 94.93C229.61 95.21 226.5 96.55 225.57 97.69C224.96 98.45 224.88 98.43 222.17 96.96C220.65 96.13 218.5 94.97 217.4 94.38L215.4 93.3L215.4 87.95C215.4 82.41 215.75 81.2 217.35 81.2C217.66 81.2 218.42 80.93 219.05 80.6C219.68 80.27 220.49 80 220.85 80C221.21 80 221.73 79.73 222 79.4C222.27 79.07 222.75 78.8 223.05 78.8C223.35 78.8 224.74 78.26 226.14 77.6C227.53 76.94 228.81 76.4 228.96 76.4C229.22 76.4 230.92 75.69 234.26 74.17C234.95 73.86 235.67 73.6 235.86 73.59C236.05 73.59 237.28 73.06 238.6 72.42C239.92 71.77 241.03 71.23 241.07 71.22ZM161.29 74.95C162.09 76.56 163.06 79.42 163.42 81.2C163.57 81.97 163.95 82.95 164.25 83.39C164.55 83.82 164.8 84.53 164.8 84.95C164.8 86.69 166.11 88.8 167.18 88.8C168.23 88.8 171.2 90.55 171.2 91.17C171.2 92.12 176.1 91.72 178.66 90.57C179.35 90.26 180.47 90 181.14 90C181.81 90 182.45 89.84 182.58 89.64C182.7 89.43 183.51 89.15 184.37 89L185.93 88.74L186.09 86.07C186.25 83.19 185.92 82 184.96 82C184.33 82 181.37 80.79 179.54 79.78C178.95 79.46 178.22 79.2 177.91 79.2C177.6 79.2 176.29 78.66 175 78C173.71 77.34 172.34 76.8 171.96 76.8C171.57 76.8 170.99 76.53 170.66 76.2C170.33 75.87 169.85 75.6 169.59 75.6C169.07 75.6 166.85 74.69 165 73.72C161.65 71.97 160.07 72.49 161.29 74.95ZM241.3 72.45C240.06 72.64 239.19 72.92 237.8 73.58C235.01 74.91 233.29 75.6 232.81 75.6C232.55 75.6 232.07 75.87 231.74 76.2C231.41 76.53 230.83 76.8 230.44 76.8C230.06 76.8 228.69 77.34 227.4 78C226.11 78.66 224.81 79.2 224.51 79.2C224.21 79.2 223.29 79.55 222.48 79.98C220.29 81.12 218.15 82 217.54 82C216.59 82 215.96 83.45 216.41 84.61C216.98 86.12 216.89 88.44 216.19 90.44C215.49 92.41 215.68 92.71 218.3 93.85C219.01 94.16 219.6 94.59 219.6 94.81C219.6 95.02 219.92 95.2 220.32 95.2C220.72 95.2 221.22 95.38 221.44 95.61C221.67 95.83 222.49 96.34 223.28 96.74L224.71 97.47L226.01 96.33C226.72 95.71 227.6 95.19 227.95 95.19C228.31 95.18 228.95 94.91 229.38 94.59C229.8 94.26 230.73 94 231.44 94C233.2 94 234 93.64 234 92.85C234 92.48 234.24 91.82 234.54 91.39C234.84 90.95 235.2 89.97 235.34 89.2C235.49 88.43 235.85 87.26 236.16 86.6C237.46 83.77 238 82.33 238 81.64C238 81.23 238.27 80.67 238.6 80.4C238.93 80.13 239.2 79.57 239.2 79.17C239.2 78.44 239.92 76.53 241.04 74.27C241.35 73.64 241.6 72.97 241.6 72.77C241.6 72.56 241.47 72.42 241.3 72.45ZM158 73.8C158 74.11 158.53 75.94 159.17 77.88C159.81 79.81 160.52 82.03 160.75 82.8C160.97 83.57 161.53 85.26 161.98 86.56C163.03 89.58 163.01 90.08 161.82 91.27C160.53 92.56 159.93 94.22 160.06 96.07C160.17 97.61 158.88 99.6 157.76 99.6C157.49 99.6 157.2 99.8 157.12 100.04C156.99 100.44 154.38 102.09 152 103.29C151.45 103.57 150.82 103.94 150.6 104.11C145 108.55 141.06 109.56 142.98 106.06C143.52 105.08 144.66 102.35 147.68 94.8C148.34 93.15 149.2 91.08 149.59 90.2C149.98 89.32 150.63 87.7 151.02 86.6C151.41 85.5 151.95 84.33 152.21 84C152.48 83.67 152.82 82.87 152.98 82.21C153.13 81.56 153.68 80.12 154.19 79.01C154.7 77.91 155.25 76.55 155.41 76C155.57 75.45 156.06 74.5 156.48 73.89C157.26 72.8 158 72.75 158 73.8ZM247.2 75.1C247.2 75.41 247.74 76.84 248.4 78.26C249.06 79.69 249.6 80.97 249.6 81.1C249.6 81.24 249.93 82.08 250.34 82.97C250.75 83.87 251.4 85.41 251.79 86.4C252.18 87.39 252.74 88.74 253.03 89.4C254.37 92.41 256.4 97.47 256.4 97.78C256.4 97.97 256.94 99.27 257.6 100.66C258.26 102.06 258.8 103.5 258.8 103.87C258.8 104.24 259.04 104.82 259.33 105.17C262.27 108.68 260.53 110.8 256.2 108.99C255.54 108.71 253.56 108.17 251.8 107.78C250.04 107.38 248.15 106.84 247.6 106.58C247.05 106.31 245.79 105.96 244.8 105.8C241.9 105.33 240.87 104.61 240.59 102.9C240.22 100.65 239.24 98.59 237.95 97.35C236.66 96.11 236.42 94.26 237.39 92.98C237.71 92.55 237.98 91.88 237.99 91.48C238 90.8 239.15 87.85 240.01 86.31C240.23 85.92 240.4 85.38 240.4 85.11C240.4 84.83 240.64 84.15 240.93 83.6C241.21 83.05 241.76 81.61 242.15 80.4C242.54 79.19 243.18 77.48 243.59 76.6C243.99 75.72 244.43 74.5 244.56 73.9C244.94 72.25 247.2 73.28 247.2 75.1ZM157.71 75.93C157.34 74.22 156.37 75.03 155.83 77.48C155.67 78.17 155.29 78.96 154.97 79.22C154.66 79.48 154.4 80.01 154.4 80.4C154.4 81.23 152.92 84.68 152.44 84.97C152.26 85.09 151.99 85.91 151.85 86.79C151.71 87.68 151.41 88.4 151.19 88.4C150.98 88.4 150.8 88.73 150.8 89.12C150.8 89.52 150.54 90.2 150.21 90.62C149.89 91.05 149.62 91.64 149.61 91.94C149.61 92.24 149.34 93.05 149.03 93.74C147.37 97.41 146.8 98.8 146.8 99.22C146.8 99.47 146.56 100.15 146.26 100.74C145.1 103.02 144.42 104.65 144.17 105.7C144.03 106.31 143.75 106.8 143.56 106.8C143.36 106.8 143.21 107.11 143.21 107.5C143.22 108.17 143.25 108.17 143.76 107.5C144.05 107.11 144.57 106.8 144.92 106.8C145.27 106.8 145.66 106.63 145.78 106.42C145.91 106.22 147.02 105.45 148.25 104.72C149.48 104 150.96 103.08 151.54 102.69C152.12 102.31 152.91 101.88 153.3 101.75C153.69 101.62 154 101.36 154 101.18C154 101 154.41 100.73 154.9 100.58C157.39 99.82 159.2 97.66 159.2 95.46C159.2 93.72 159.4 93.14 160.47 91.84C161.86 90.15 162.12 87.47 161.04 85.8C160.44 84.86 158.8 79.76 158.8 78.81C158.8 78.45 158.63 77.99 158.41 77.77C158.2 77.56 157.88 76.73 157.71 75.93ZM246.09 75.08C245.33 74.39 243.59 77.09 243.6 78.94C243.6 79.34 243.3 80.24 242.94 80.94C241.38 83.92 241.2 84.37 241.2 85.2C241.2 85.68 240.96 86.55 240.67 87.14C240.38 87.72 239.84 88.8 239.47 89.53C239.1 90.27 238.8 91.17 238.8 91.54C238.8 91.91 238.45 92.87 238.02 93.67L237.23 95.14L238.1 96.27C238.58 96.89 239.2 97.54 239.49 97.72C239.77 97.9 240 98.22 240 98.45C240 98.67 240.27 99.13 240.6 99.46C240.97 99.82 241.2 100.8 241.2 101.95L241.2 103.85L243.7 104.56C245.07 104.95 247.28 105.61 248.6 106.01C251.63 106.94 254.24 107.61 255.89 107.88C256.59 107.99 257.38 108.33 257.63 108.64C257.89 108.95 258.44 109.2 258.85 109.2C259.8 109.2 259.91 106.76 259 106C258.67 105.73 258.4 105.28 258.4 105C258.4 104.44 257.07 101.17 256.18 99.54C255.86 98.95 255.6 98.2 255.6 97.87C255.6 97.54 255.3 96.67 254.93 95.93C254.56 95.2 254.02 94.12 253.73 93.54C253.44 92.95 253.2 92.12 253.2 91.69C253.2 91.25 252.93 90.67 252.6 90.4C252.27 90.13 252 89.6 252 89.23C252 88.86 251.74 88.2 251.41 87.78C251.09 87.35 250.82 86.68 250.81 86.28C250.81 85.88 250.45 84.89 250.02 84.08C248.85 81.84 248 79.75 248 79.09C248 78.76 247.73 78.27 247.4 78C247.07 77.73 246.8 77.1 246.8 76.61C246.8 76.12 246.48 75.43 246.09 75.08ZM189.12 94.13C190.11 95.99 191.94 98.08 193.45 99.07C194.64 99.85 194.51 100.89 192.74 104.71C192.1 106.09 191.47 107.75 191.34 108.4C191.21 109.05 190.85 109.79 190.55 110.04C190.25 110.29 190 110.74 190 111.03C190 111.93 186.99 118.63 186.44 118.98C186.24 119.1 184.42 119.28 182.41 119.37L178.74 119.55L178.13 118.07C177.5 116.56 174.22 109.6 171.75 104.55C170.4 101.78 170.22 100 171.23 99.38C171.42 99.26 171.77 98.45 172 97.58C172.51 95.72 174.24 94.64 177.66 94.06C180.23 93.63 183.29 92.87 185.19 92.19C187.02 91.54 188 92.02 189.12 94.13ZM181.81 93.99C181.55 94.2 180.29 94.5 179 94.65C177.7 94.8 176.18 95.17 175.62 95.46C175.06 95.75 174.38 96 174.12 96C173.85 96 173.34 96.67 172.99 97.5C172.63 98.33 172.17 99.27 171.96 99.6C171.14 100.94 171.1 101.36 171.7 102.55C172.04 103.24 172.43 104.07 172.56 104.4C172.69 104.73 172.96 105.27 173.17 105.6C173.37 105.93 174.2 107.64 175 109.4C175.81 111.16 176.99 113.64 177.63 114.91C178.28 116.17 178.8 117.48 178.8 117.81C178.8 118.28 179.44 118.4 182.03 118.4C185.48 118.4 186.8 117.98 186.8 116.89C186.8 116.51 187.16 115.66 187.6 115C188.04 114.34 188.4 113.51 188.4 113.16C188.4 112.8 188.94 111.5 189.6 110.26C190.26 109.03 190.8 107.72 190.8 107.37C190.8 107.01 191.04 106.25 191.34 105.66C193.8 100.82 193.79 100.66 191.03 97.84C189.76 96.54 188.54 94.98 188.33 94.38C187.81 92.89 183.45 92.63 181.81 93.99ZM216.2 96.59C217.08 97.1 218.61 97.92 219.6 98.42C222.77 100.01 223.2 100.6 223.2 103.45C223.2 106.01 224.78 109.68 226.24 110.52C226.86 110.87 227 112.23 226.45 112.57C226.26 112.69 225.69 113.91 225.19 115.29C224.68 116.67 224.03 118.08 223.74 118.43C223.44 118.78 223.2 119.28 223.2 119.55C223.2 120.79 221.15 124 220.2 124.24C218.58 124.64 218.22 124.26 216.63 120.54C215.8 118.59 214.95 116.69 214.75 116.3C214.56 115.92 213.96 114.47 213.44 113.1C212.91 111.72 212.2 110.06 211.84 109.4C211.49 108.74 211.2 107.96 211.2 107.66C211.2 107.37 210.93 106.6 210.6 105.96C209.14 103.13 208.89 102.52 208.64 101.15C208.42 99.9 208.52 99.61 209.39 99.04C209.94 98.68 210.96 97.76 211.66 96.99C213.13 95.38 213.97 95.3 216.2 96.59ZM214.19 96.69C213.48 96.24 213.18 96.41 211.3 98.3C209.01 100.6 208.94 100.78 209.75 102.34C210.86 104.49 212 107.1 212 107.51C212 107.74 212.3 108.53 212.67 109.27C213.04 110 213.58 111.08 213.87 111.66C214.16 112.25 214.4 113.08 214.4 113.51C214.4 113.95 214.67 114.53 215 114.8C215.33 115.07 215.6 115.6 215.6 115.97C215.6 116.34 215.86 117 216.19 117.42C216.51 117.85 216.78 118.47 216.78 118.8C216.81 122 220.26 124.54 221.27 122.1C222.36 119.46 223.3 117.59 223.63 117.38C223.84 117.25 224 116.82 224 116.41C224 116 224.3 115.06 224.67 114.33C225.03 113.6 225.5 112.67 225.7 112.25C225.97 111.69 225.82 111.25 225.09 110.45C223.45 108.67 222.4 105.97 222.4 103.5C222.4 101.3 221.31 99.6 219.9 99.6C219.69 99.6 218.72 99.06 217.74 98.4C216.76 97.74 215.74 97.2 215.47 97.2C215.2 97.2 214.62 96.97 214.19 96.69ZM163 101.2C163.88 101.63 165.14 101.98 165.8 101.99C167.61 102.02 167.64 102.07 171.37 109.8C173.28 113.76 175.1 117.48 175.42 118.06C176.4 119.85 176.13 121.1 174.33 123.19C172.61 125.18 172.51 125.21 170.2 124.19C169.54 123.9 167.65 123.13 166 122.47C161.49 120.68 155.9 118.4 155 117.99C154.56 117.79 153.21 117.25 152 116.8C150.79 116.34 149.26 115.72 148.6 115.41C147.94 115.1 146.37 114.44 145.1 113.95C141.89 112.7 142.12 112.31 148.44 108.26C150.55 106.91 152.62 105.58 153.04 105.3C153.46 105.02 154.16 104.62 154.6 104.39C155.04 104.17 156.66 103.19 158.2 102.21C161.46 100.13 160.99 100.23 163 101.2ZM198.34 101.05C200.01 101.53 202.02 101.63 203.24 101.3C205.41 100.7 206.16 101.22 207.21 104.06C207.72 105.46 208.38 106.95 208.67 107.39C208.96 107.82 209.2 108.41 209.2 108.69C209.2 108.97 209.74 110.34 210.4 111.74C211.06 113.14 211.6 114.47 211.6 114.7C211.6 114.93 212.14 116.21 212.8 117.54C213.46 118.87 214 120.15 214 120.39C214 120.64 214.36 121.54 214.8 122.4C215.24 123.26 215.6 124.39 215.6 124.89C215.6 125.41 215.24 126.13 214.8 126.51C214.36 126.88 214 127.45 214 127.77C214 129.34 212.56 129.6 203.79 129.6C194.56 129.6 193.6 129.36 193.6 127.04C193.6 125.96 191.61 123.05 189.85 121.55L188.61 120.5L189.87 117.55C190.56 115.93 191.44 113.74 191.82 112.69C192.21 111.64 192.67 110.68 192.86 110.56C193.05 110.45 193.2 110.07 193.2 109.72C193.2 109.37 193.55 108.35 193.97 107.44C194.39 106.54 195.14 104.77 195.64 103.52C196.13 102.26 196.82 101.16 197.17 101.06C197.51 100.97 198.04 100.96 198.34 101.05ZM158.35 102.94C158.12 103.26 156.87 104.04 155.6 104.66C155.27 104.82 153.75 105.82 152.21 106.88C150.68 107.94 149.2 108.8 148.91 108.8C148.63 108.8 148.4 108.98 148.4 109.21C148.4 109.44 148 109.8 147.5 110.03C144.15 111.55 143.03 113.18 145.32 113.21C145.81 113.22 146.55 113.49 146.98 113.81C147.4 114.14 148.06 114.4 148.43 114.4C148.8 114.4 149.33 114.67 149.6 115C149.87 115.33 150.45 115.6 150.89 115.6C151.32 115.6 152.15 115.84 152.74 116.14C155.07 117.33 156.66 117.96 157.9 118.21C158.62 118.35 159.2 118.63 159.2 118.83C159.2 119.03 159.53 119.2 159.92 119.2C160.32 119.2 161 119.46 161.42 119.79C161.85 120.11 162.46 120.38 162.77 120.39C163.09 120.39 164.08 120.73 164.97 121.14C165.87 121.55 167.41 122.2 168.4 122.58C169.39 122.97 170.47 123.44 170.8 123.64C172.09 124.42 172.56 124.53 172.71 124.07C172.8 123.81 173.47 122.87 174.22 121.98C175.69 120.22 175.69 120.28 173.93 116.8C173.31 115.59 172.81 114.38 172.81 114.1C172.8 113.83 172.62 113.6 172.41 113.6C172.19 113.6 171.89 113.11 171.74 112.5C171.59 111.9 171.22 111.17 170.93 110.88C170.64 110.58 170.4 109.97 170.4 109.52C170.4 109.06 170.16 108.49 169.87 108.24C169.41 107.85 168.42 105.75 167.87 103.97C167.75 103.58 166.62 103.06 164.94 102.62C163.43 102.22 162.03 101.74 161.82 101.55C161.31 101.08 159.05 101.98 158.35 102.94ZM205.9 102L201.42 102C196.61 102 196.4 102.06 196.4 103.43C196.4 103.93 196.15 104.84 195.84 105.47C195.52 106.09 194.98 107.28 194.63 108.1C194.29 108.92 193.75 110.19 193.45 110.9C193.15 111.61 192.59 113.01 192.21 114C191.82 114.99 191.17 116.54 190.76 117.44C189.75 119.63 189.8 120.22 191.1 121.53C192.51 122.95 194 125.04 194 125.6C194 125.84 194.28 126.57 194.61 127.22L195.22 128.4L203.91 128.38L212.6 128.37L213.7 126.78C214.99 124.92 215.03 124.52 214.13 122.73C213.76 122 213.22 120.92 212.93 120.34C212.64 119.75 212.4 118.92 212.4 118.49C212.4 118.05 212.13 117.47 211.8 117.2C211.47 116.93 211.2 116.45 211.2 116.15C211.2 115.85 210.67 114.48 210.03 113.1C209.38 111.72 208.73 110.09 208.57 109.47C208.42 108.85 207.86 107.44 207.33 106.34C206.8 105.24 206.26 103.81 206.13 103.17L205.9 102ZM245.43 108.65C246.11 108.97 247.55 109.39 248.63 109.59C250.73 109.98 253.87 110.8 256.78 111.71C259.82 112.67 259.63 112.89 253.4 115.61C252.52 115.99 250.9 116.63 249.8 117.03C248.7 117.42 247.44 117.98 247.01 118.27C246.58 118.56 245.98 118.8 245.69 118.8C245.4 118.8 244.07 119.34 242.74 120C241.41 120.66 240.08 121.2 239.79 121.2C239.5 121.2 238.66 121.5 237.93 121.87C237.2 122.24 236.12 122.78 235.54 123.07C234.95 123.36 234.23 123.6 233.93 123.6C233.63 123.6 232.76 123.94 231.99 124.35C222.59 129.38 221.77 127.33 228.18 114.8L229.5 112.2L232.71 112C236.13 111.79 236.56 111.57 239 108.88C240.32 107.42 242.6 107.34 245.43 108.65ZM240 108.69C240 109.26 238.25 111.2 237.73 111.2C237.49 111.2 237.19 111.44 237.08 111.74C236.87 112.28 233.17 113.2 231.21 113.2C230.19 113.2 228.4 114.97 228.4 115.98C228.4 116.2 227.87 117.43 227.23 118.69C223.7 125.64 223.81 127.02 227.75 125.22C228.74 124.77 229.73 124.4 229.95 124.4C230.16 124.4 230.84 124.15 231.47 123.83C232.09 123.52 233.32 122.96 234.2 122.59C235.08 122.21 236.31 121.65 236.93 121.35C237.56 121.05 238.24 120.8 238.45 120.8C238.91 120.8 242.11 119.44 243.66 118.58C244.25 118.26 245 118 245.33 118C245.66 118 246.53 117.7 247.27 117.33C248 116.96 249.08 116.42 249.66 116.13C250.25 115.84 251.08 115.6 251.51 115.6C251.95 115.6 252.53 115.33 252.8 115C253.07 114.67 253.54 114.4 253.83 114.4C254.56 114.4 257.18 113.07 257.19 112.7C257.2 112.53 256.73 112.4 256.16 112.4C255.59 112.4 254.65 112.15 254.06 111.84C253.48 111.54 252.01 111.08 250.8 110.83C246.14 109.87 245.07 109.59 244.63 109.23C243.97 108.68 240 108.21 240 108.69ZM259.07 115.62C260.32 115.22 260.59 116.53 259.67 118.57C259.26 119.47 258.35 121.73 257.63 123.6C256.24 127.21 253.89 133 253.01 135C252.71 135.66 252.17 137.01 251.8 138C251.42 138.99 250.96 140.12 250.75 140.5C250.56 140.88 249.96 142.32 249.44 143.7C248.91 145.07 248.2 146.74 247.84 147.4C247.49 148.06 247.2 148.81 247.2 149.07C247.2 149.32 246.94 150.04 246.62 150.67C246.3 151.29 245.95 152.12 245.83 152.5C245.3 154.31 243.85 153.21 234.52 143.91L225.2 134.61L225.2 132.57C225.2 130.98 225.39 130.36 226.1 129.71C226.99 128.9 230.39 127.2 231.14 127.2C231.35 127.2 232.61 126.66 233.94 126C235.27 125.34 236.55 124.8 236.78 124.8C237.01 124.8 237.88 124.44 238.7 124C239.52 123.56 240.42 123.2 240.7 123.2C240.98 123.2 241.52 123.03 241.91 122.83C242.94 122.27 245.8 121.04 249.4 119.61C251.16 118.91 253.14 118.08 253.8 117.78C254.46 117.47 255.9 116.87 257 116.44C258.1 116 259.03 115.63 259.07 115.62ZM145.5 116.39C146.71 117.06 149.94 118.4 150.35 118.4C150.56 118.4 151.25 118.65 151.87 118.97C152.49 119.28 153.63 119.79 154.4 120.11C155.17 120.43 156.43 120.98 157.2 121.33C157.97 121.69 159.59 122.34 160.8 122.8C162.01 123.25 163.54 123.87 164.2 124.18C164.86 124.48 166.21 125.05 167.2 125.45C171.28 127.1 171.58 127.42 171.55 129.93C171.52 132.59 172.25 135.78 173.04 136.44C174.31 137.48 173.53 138.57 166.3 145.8C158.45 153.66 157.46 154.36 156.79 152.53C156.57 151.91 156.22 151.04 156.01 150.6C155.81 150.16 154.99 148.18 154.19 146.2C153.4 144.22 152.49 142.06 152.18 141.4C151.88 140.74 151.25 139.21 150.8 138C150.34 136.79 149.72 135.26 149.42 134.6C149.11 133.94 148.57 132.68 148.21 131.8C147.85 130.92 147.3 129.72 146.98 129.14C146.66 128.55 146.4 127.8 146.4 127.45C146.4 126.91 145.59 125.01 144.37 122.7C144.17 122.32 143.99 121.78 143.99 121.5C143.98 121.23 143.53 120.1 142.99 119C142.45 117.9 142.01 116.78 142 116.5C142 115.9 144.49 115.82 145.5 116.39ZM145.06 121.66C145.36 122.25 145.6 123.08 145.6 123.51C145.6 123.95 145.87 124.53 146.2 124.8C146.53 125.07 146.8 125.56 146.8 125.89C146.8 126.21 147.06 127.05 147.37 127.74C148.99 131.31 149.6 132.79 149.6 133.15C149.6 133.36 149.9 134.13 150.27 134.87C150.64 135.6 151.18 136.68 151.47 137.26C151.76 137.85 152 138.68 152 139.11C152 139.55 152.27 140.13 152.6 140.4C152.93 140.67 153.2 141.2 153.2 141.57C153.2 141.94 153.46 142.6 153.79 143.02C154.11 143.45 154.38 144.12 154.39 144.52C154.39 144.92 154.75 145.91 155.18 146.72C156.38 149.01 157.2 151.06 157.2 151.76C157.2 153.34 159.08 151.91 165.7 145.28C172 138.96 173.71 136.8 172.41 136.8C172.19 136.8 171.89 136.32 171.75 135.73C171.6 135.14 171.24 134.19 170.94 133.63C170.65 133.06 170.4 131.47 170.4 130.1C170.4 128.24 170.26 127.6 169.85 127.6C169.55 127.6 169.07 127.33 168.8 127C168.53 126.67 167.91 126.4 167.44 126.4C166.97 126.4 166.22 126.16 165.79 125.86C165.35 125.56 164.5 125.2 163.9 125.05C163.29 124.91 162.8 124.61 162.8 124.39C162.8 124.18 162.41 124 161.94 124C161.47 124 160.35 123.66 159.44 123.24C158.54 122.82 157.08 122.17 156.2 121.81C154.06 120.92 152.05 120.02 150.67 119.35C150.04 119.05 149.21 118.8 148.82 118.8C148.42 118.8 147.87 118.53 147.6 118.2C147.33 117.87 146.71 117.6 146.23 117.6C145.75 117.6 145 117.34 144.58 117.01C142.46 115.41 142.61 116.83 145.06 121.66ZM257.82 117.01C257.4 117.34 256.65 117.6 256.17 117.6C255.69 117.6 255.07 117.87 254.8 118.2C254.53 118.53 254.06 118.8 253.76 118.8C253.27 118.8 252.26 119.18 249 120.61C248.34 120.9 247.08 121.44 246.2 121.81C245.32 122.17 243.86 122.82 242.96 123.24C242.05 123.66 240.93 124 240.46 124C239.99 124 239.6 124.18 239.6 124.39C239.6 124.61 239.1 124.91 238.5 125.05C237.9 125.2 237.04 125.56 236.61 125.86C236.18 126.16 235.47 126.4 235.04 126.4C234.61 126.4 233.98 126.64 233.63 126.94C233.28 127.23 231.83 127.89 230.4 128.41C226.5 129.82 226.03 130.25 226.01 132.49L226 134.38L235.05 143.39C244.38 152.69 245 153.16 245.45 151.3C245.6 150.69 245.96 149.84 246.26 149.41C246.56 148.98 246.8 148.23 246.8 147.76C246.8 147.29 247.07 146.67 247.4 146.4C247.73 146.13 248 145.61 248 145.25C248 144.89 248.27 144.08 248.6 143.45C248.93 142.82 249.2 142.08 249.2 141.81C249.2 141.53 249.56 140.85 250 140.29C250.44 139.73 250.81 138.85 250.81 138.34C250.82 137.82 251.09 137.05 251.41 136.62C251.74 136.2 252 135.54 252 135.17C252 134.8 252.27 134.27 252.6 134C252.93 133.73 253.2 133.15 253.2 132.71C253.2 132.28 253.44 131.45 253.73 130.86C254.02 130.28 254.56 129.2 254.93 128.47C255.3 127.73 255.6 126.95 255.6 126.73C255.6 126.5 255.85 125.75 256.17 125.06C257.63 121.82 258.4 119.86 258.4 119.4C258.4 119.12 258.67 118.67 259 118.4C259.33 118.13 259.6 117.56 259.6 117.15C259.6 116.26 258.89 116.2 257.82 117.01ZM213.08 132.31C215.25 133.7 216.04 136.78 214.8 139.1C214.36 139.92 214 140.82 214 141.1C214 141.38 213.83 141.92 213.63 142.31C213.08 143.32 211.86 146.16 210.4 149.8C209.7 151.56 208.8 153.72 208.41 154.6C208.02 155.48 207.37 157.1 206.97 158.2C206.58 159.3 206.02 160.56 205.73 160.99C205.44 161.42 205.2 162.01 205.2 162.29C205.2 162.57 204.68 163.92 204.04 165.3C203.41 166.68 202.78 168.29 202.64 168.9C202.45 169.73 202.15 170 201.4 170C200.66 170 200.35 169.73 200.15 168.9C200 168.29 199.37 166.73 198.74 165.43C198.11 164.13 197.6 162.86 197.6 162.62C197.6 162.38 197.24 161.52 196.8 160.7C196.36 159.88 196 159.02 196 158.8C196 158.58 195.46 157.26 194.8 155.86C194.14 154.47 193.6 153.19 193.6 153.04C193.6 152.72 192.17 149.36 191.59 148.31C191.37 147.92 191.2 147.42 191.2 147.19C191.2 146.96 190.66 145.61 190 144.2C188.51 141.01 188.51 141.03 190.17 139.57C191.6 138.32 193.6 135.25 193.6 134.32C193.6 134.02 193.88 133.38 194.22 132.89C194.86 131.97 211.73 131.46 213.08 132.31ZM212.2 132.8L203.71 132.8L195.22 132.8L194.67 133.9C194.36 134.5 194 135.47 193.87 136.03C193.73 136.6 192.8 137.94 191.81 139.01C189.77 141.21 189.68 141.61 190.8 143.7C191.24 144.53 191.6 145.55 191.6 145.97C191.6 146.4 191.77 146.85 191.97 146.98C192.17 147.11 192.46 147.78 192.62 148.48C192.77 149.18 193.15 150 193.45 150.31C193.75 150.61 194 151.21 194 151.64C194 152.06 194.54 153.43 195.2 154.66C195.86 155.9 196.4 157.27 196.4 157.71C196.4 158.15 196.74 159.07 197.15 159.75C197.56 160.44 198.22 161.9 198.62 163C199.02 164.1 199.58 165.35 199.87 165.79C200.16 166.22 200.4 166.89 200.4 167.28C200.4 168.81 201.94 168.93 202.22 167.42C202.37 166.65 202.74 165.82 203.04 165.56C203.35 165.31 203.61 164.72 203.61 164.25C203.62 163.78 203.89 163.05 204.21 162.62C204.54 162.2 204.8 161.54 204.8 161.17C204.8 160.8 205.07 160.27 205.4 160C205.73 159.73 206 159.12 206 158.65C206 158.18 206.54 156.72 207.2 155.4C207.86 154.08 208.4 152.77 208.4 152.48C208.4 152.2 209.03 150.62 209.8 148.97C210.57 147.33 211.2 145.81 211.2 145.6C211.2 145.27 212.2 143.06 213.23 141.1C213.43 140.72 213.6 140.15 213.6 139.83C213.6 139.52 213.84 139.02 214.13 138.72C215.42 137.44 215.29 136.08 213.71 134.4L212.2 132.8ZM232.81 145.78C237.99 150.95 242.2 155.47 242.2 155.86C242.2 156.54 241.44 156.93 234 160.1C233.23 160.42 231.94 160.99 231.14 161.35C230.34 161.71 229.5 162 229.27 162C229.05 162 228.35 162.26 227.73 162.59C226.46 163.25 225.06 163.84 221 165.42C219.46 166.01 217.27 166.93 216.13 167.45C214.99 167.97 213.92 168.4 213.76 168.4C213.61 168.4 212.52 168.85 211.34 169.41C210.17 169.96 208.67 170.53 208.01 170.66C207.36 170.79 206.61 171.15 206.36 171.45C205.36 172.66 203.65 171.87 204.33 170.52C205.19 168.83 206.4 165.95 206.4 165.62C206.4 165.42 206.94 164.09 207.6 162.66C208.26 161.24 208.8 159.86 208.8 159.6C208.8 159.34 209.04 158.65 209.33 158.06C209.62 157.48 210.16 156.4 210.53 155.67C210.9 154.94 211.2 154.16 211.2 153.95C211.2 153.74 211.72 152.45 212.35 151.08C212.98 149.72 213.64 148.15 213.81 147.6C213.97 147.05 214.35 146.25 214.65 145.81C214.95 145.38 215.2 144.79 215.2 144.51C215.2 144.23 215.72 142.88 216.36 141.5C217 140.13 217.64 138.59 217.79 138.1C217.95 137.56 218.48 137.11 219.13 136.97C219.72 136.84 220.38 136.67 220.6 136.6C222.8 135.86 223.15 136.13 232.81 145.78ZM221.8 137.4C221.58 137.47 220.72 137.65 219.9 137.78C218.85 137.96 218.4 138.24 218.4 138.72C218.4 139.09 218.04 139.94 217.6 140.6C217.16 141.26 216.8 142.09 216.8 142.45C216.8 143.29 215.29 146.69 214.79 147.01C214.57 147.14 214.4 147.61 214.4 148.06C214.4 148.51 214.16 149.35 213.87 149.94C213.58 150.52 213.04 151.6 212.67 152.33C212.3 153.06 212 153.88 212 154.14C212 154.4 211.64 155.28 211.2 156.1C210.76 156.93 210.4 157.78 210.4 158C210.4 158.22 209.86 159.54 209.2 160.94C208.54 162.34 208 163.74 208 164.06C208 164.38 207.74 165 207.41 165.42C207.09 165.85 206.82 166.5 206.81 166.87C206.81 167.24 206.52 167.82 206.17 168.17C205.83 168.51 205.6 169.24 205.67 169.77L205.8 170.75L207.8 169.94C208.9 169.49 210.54 168.78 211.44 168.36C212.35 167.94 213.29 167.6 213.55 167.6C213.8 167.6 214.32 167.43 214.71 167.23C216.93 166.06 218.9 165.2 219.38 165.2C219.69 165.2 220.53 164.9 221.27 164.53C222 164.16 223.08 163.62 223.66 163.33C224.25 163.04 225.06 162.8 225.48 162.8C225.9 162.8 226.45 162.59 226.71 162.33C227.21 161.83 229.26 161 231.7 160.32C232.53 160.09 233.2 159.75 233.2 159.57C233.2 159.39 233.78 159.06 234.5 158.84C237 158.08 238.83 157.33 239.29 156.87C239.55 156.61 240.19 156.4 240.71 156.4C242.17 156.4 242 156.2 232.41 146.6C223.91 138.08 222.76 137.09 221.8 137.4ZM177.02 140.37C178.25 141.56 183.67 142.72 184.77 142.03C185.65 141.47 187.08 142.65 187.37 144.18C187.51 144.92 187.89 145.74 188.21 146.01C188.53 146.28 188.8 146.74 188.8 147.03C188.8 147.54 189.63 149.69 190.46 151.31C190.66 151.7 191.2 153.05 191.66 154.31C192.12 155.57 192.84 157.35 193.25 158.28C193.66 159.2 194 160.08 194 160.24C194 160.4 194.54 161.66 195.2 163.06C195.86 164.46 196.4 165.8 196.4 166.04C196.4 166.28 196.66 166.95 196.99 167.54C199.09 171.35 198.86 172.91 196.39 171.46C195.78 171.1 195.08 170.8 194.84 170.8C194.6 170.8 193.26 170.26 191.86 169.6C190.47 168.94 189.19 168.4 189.02 168.4C188.86 168.4 188.15 168.14 187.46 167.83C183.64 166.1 182.38 165.6 181.85 165.6C181.52 165.6 181.14 165.43 181.01 165.22C180.88 165 180.19 164.65 179.49 164.44C177.21 163.75 175.31 162.99 174.75 162.54C174.45 162.31 173.67 161.98 173.03 161.83C172.38 161.68 170.73 161.02 169.34 160.38C167.96 159.73 166.68 159.2 166.5 159.2C166.32 159.2 165.5 158.86 164.69 158.44C163.87 158.03 162.48 157.4 161.6 157.05C159.29 156.12 159.27 156.15 167.71 147.71C175.05 140.37 176.14 139.51 177.02 140.37ZM175.91 141.2C175.31 141.2 161.2 155.34 161.2 155.94C161.2 156.19 161.49 156.4 161.84 156.4C162.19 156.4 162.95 156.64 163.54 156.93C164.12 157.22 165.2 157.76 165.93 158.13C166.66 158.5 167.59 158.8 167.98 158.8C168.38 158.8 168.92 159.06 169.18 159.37C169.44 159.69 170.23 160.07 170.93 160.22C171.63 160.38 173.3 161.02 174.64 161.65C175.98 162.28 177.3 162.8 177.58 162.8C177.85 162.8 178.6 163.07 179.24 163.4C179.88 163.73 180.92 164.27 181.56 164.6C182.2 164.93 183.09 165.2 183.53 165.2C183.98 165.2 184.61 165.47 184.94 165.8C185.27 166.13 185.78 166.4 186.07 166.4C186.36 166.4 187.06 166.65 187.63 166.94C188.19 167.24 189.16 167.6 189.78 167.76C190.39 167.91 191.16 168.3 191.48 168.62C191.8 168.94 192.45 169.21 192.93 169.21C193.41 169.22 194.15 169.49 194.58 169.81C196.37 171.17 198.04 170.06 196.67 168.43C196.38 168.08 195.81 166.9 195.42 165.8C195.03 164.7 194.38 163.08 194 162.2C192.2 158.16 190.8 154.66 190.8 154.22C190.8 153.96 190.26 152.69 189.6 151.4C188.94 150.11 188.4 148.71 188.4 148.29C188.4 147.87 188.04 147.07 187.6 146.51C187.16 145.95 186.8 145.18 186.8 144.81C186.8 143.53 185.53 142.86 183.16 142.88C181.81 142.9 180.02 142.57 178.65 142.05C177.4 141.58 176.16 141.2 175.91 141.2ZM235.29 212.49L239.8 212.6L239.81 263.4L239.4 213L235.1 212.89C231.28 212.78 230.8 212.85 230.8 213.45C230.8 213.83 230.69 214.02 230.55 213.88C230.41 213.75 230.41 213.35 230.54 213C230.75 212.47 231.49 212.39 235.29 212.49ZM198.6 223.76L202.07 223.68C205.65 223.6 206.8 223.79 206.8 224.49C206.8 224.75 206.62 224.74 206.28 224.47C205.99 224.23 204.15 223.97 202.18 223.9L198.6 223.76ZM197.47 235.65C197.86 237.14 205.8 237.36 206.39 235.9C206.61 235.35 206.76 235.24 206.78 235.62C206.83 236.89 205.89 237.2 202 237.2C198.1 237.2 197.15 236.88 197.25 235.62C197.28 235.1 197.32 235.1 197.47 235.65ZM292.97 241.15C293.06 241.29 292.06 241.42 290.75 241.44C288.44 241.47 287.96 241.01 290 240.73C291.17 240.56 292.74 240.79 292.97 241.15ZM112.95 241.12C113.06 241.3 112.24 241.46 111.13 241.48C109.83 241.5 109.3 241.38 109.65 241.16C110.35 240.72 112.69 240.69 112.95 241.12ZM164.6 240.81C165.26 240.81 166.07 240.99 166.4 241.2C166.82 241.47 166.29 241.59 164.6 241.59C162.91 241.59 162.38 241.47 162.8 241.2C163.13 240.99 163.94 240.81 164.6 240.81ZM107.38 241.66L108.6 241.72L107.4 241.89C106.74 241.99 105.93 242.29 105.6 242.56C105.27 242.83 104.46 243.36 103.8 243.75L102.6 244.45L103.6 243.62C104.15 243.16 104.95 242.52 105.38 242.19C105.81 241.87 106.71 241.63 107.38 241.66ZM113.4 241.71L114.8 241.66C116.7 241.58 120.36 244.18 121.8 246.64C123.29 249.18 122.88 249.19 121.27 246.66C119.81 244.35 117.05 242.34 114.81 241.96L113.4 241.71ZM155.84 242.31C155.89 242.59 155.85 242.64 155.74 242.41C155.44 241.81 148 241.87 148 242.47C148 242.72 147.89 242.82 147.76 242.69C147.63 242.56 147.64 242.25 147.79 242.01C148.19 241.36 155.7 241.64 155.84 242.31ZM161.35 241.65C162.16 241.69 162.16 241.7 161.4 241.89C160.96 242 159.87 242.68 158.98 243.4C157.39 244.7 156 244.75 156 243.52C156 243.28 156.34 243.39 156.76 243.77C157.39 244.33 157.59 244.36 157.86 243.91C158.05 243.62 158.72 242.97 159.35 242.49C159.99 242 160.89 241.62 161.35 241.65ZM167.91 241.65C169 241.59 172.41 244.82 172.38 245.89C172.35 246.47 172.29 246.45 172.01 245.75C171.52 244.54 168.88 242.08 167.86 241.88C167.02 241.71 167.03 241.71 167.91 241.65ZM202 241.6C204.39 241.6 206.44 241.74 206.54 241.9C206.64 242.06 204.6 242.2 202 242.2C199.4 242.2 197.36 242.06 197.46 241.9C197.56 241.74 199.61 241.6 202 241.6ZM253.19 241.69C257.83 241.81 258.57 242.36 256.98 244.49C256.4 245.27 256.35 245.28 256.6 244.6C257.61 241.93 257.71 242 253.07 242C249.46 242 248.78 242.1 248.43 242.7C248.21 243.09 248.02 243.21 248.01 242.98C248 242.75 248.22 242.34 248.49 242.07C248.84 241.72 250.26 241.61 253.19 241.69ZM286.54 241.66L287.8 241.72L286.64 241.89C286 241.99 285.01 242.34 284.44 242.68L283.4 243.29L284.34 242.44C284.93 241.92 285.76 241.62 286.54 241.66ZM293.8 241.72L295.01 241.66C297.06 241.56 302.4 245.58 302.36 247.2C302.35 247.58 302.23 247.51 302.02 247C301.3 245.28 297.05 242.2 294.96 241.89L293.8 241.72ZM247.7 244.49C247.47 244.77 247.2 245.36 247.09 245.8C246.93 246.45 246.88 246.41 246.85 245.58C246.82 245.02 247.01 244.35 247.27 244.09C247.88 243.48 248.25 243.82 247.7 244.49ZM101.95 245.3C101.69 245.79 101.07 246.84 100.58 247.62C100.09 248.4 99.6 249.39 99.49 249.82C99.31 250.53 99.29 250.53 99.25 249.75C99.22 249.28 99.86 247.88 100.66 246.65C102.13 244.37 102.82 243.65 101.95 245.3ZM280.83 245.2C281.02 245.2 280.7 246 280.11 246.98C278.78 249.18 278.45 249.09 279.62 246.85C280.09 245.94 280.64 245.2 280.83 245.2ZM256.33 246.39C256.47 246.82 255.61 248.55 255.37 248.31C255.28 248.22 255.43 247.67 255.7 247.08C255.98 246.5 256.26 246.19 256.33 246.39ZM172.29 246.6L172.93 247.4C173.29 247.84 173.56 248.83 173.54 249.6L173.51 251L173.21 249.6C173.04 248.83 172.77 247.84 172.6 247.4L172.29 246.6ZM246.21 248.24C245.71 249.2 245.6 249.26 245.6 248.58C245.6 248.13 245.81 247.55 246.07 247.29C246.81 246.55 246.87 246.97 246.21 248.24ZM302.71 248C303.3 248 303.73 249.59 303.49 250.86C303.36 251.53 303.29 251.39 303.25 250.38C303.23 249.6 302.98 248.74 302.72 248.48C302.36 248.12 302.35 248 302.71 248ZM255.14 249.21C255.34 249.84 254.84 251.6 254.45 251.6C254.27 251.6 254.32 250.97 254.56 250.2C254.8 249.43 255.06 248.98 255.14 249.21ZM113.88 250.54C114.59 251.39 114.59 251.39 113.77 250.7C112.38 249.53 110.33 249.78 109.5 251.24C108.73 252.58 108.43 264.92 109.15 265.37C109.34 265.49 109.61 266.14 109.74 266.81C110.04 268.28 112.52 271.56 116.25 275.4C119.19 278.42 122.8 282.98 122.8 283.67C122.8 283.9 122.09 283.04 121.22 281.75C120.35 280.46 118.27 277.99 116.6 276.26C109.06 268.48 108.4 267.06 108.4 258.49C108.41 251.83 108.81 250.23 110.66 249.58C111.74 249.2 113.09 249.61 113.88 250.54ZM161.78 249.56C162.4 249.74 162.26 249.83 161.2 249.93C160.43 250 159.44 250.36 159.01 250.73C158.25 251.37 158.24 251.37 158.79 250.66C159.11 250.25 159.73 249.78 160.17 249.62C160.61 249.45 161.34 249.43 161.78 249.56ZM291.76 249.55C292.42 249.75 292.31 249.83 291.2 249.93C290.43 250.01 289.57 250.26 289.29 250.49C289.01 250.72 288.67 250.8 288.53 250.66C288.39 250.53 288.87 250.16 289.6 249.86C290.32 249.55 291.29 249.42 291.76 249.55ZM123.27 250.2C124 251.31 124.28 268.98 123.58 269.83C122.87 270.68 115.89 270.64 115.03 269.77C114.49 269.23 114.41 267.88 114.48 260.27L114.56 251.4L114.78 260.31C115.04 270.73 114.68 270.05 119.8 269.9L123.4 269.8L123.39 261C123.39 256.16 123.25 251.57 123.07 250.8C122.78 249.56 122.81 249.49 123.27 250.2ZM245.01 251.43C244.6 252.22 244.4 252.37 244.4 251.9C244.4 251.51 244.62 250.83 244.9 250.39C245.63 249.22 245.72 250.07 245.01 251.43ZM163.39 250.62C164.16 251.64 164.16 252.23 163.4 251.6C163.07 251.33 162.8 250.82 162.8 250.47C162.8 249.97 162.92 250 163.39 250.62ZM278.41 252.47C277.9 254.78 278 301.31 278.51 303.2C278.66 303.75 278.53 303.48 278.22 302.6C277.47 300.47 277.33 254 278.06 251.54C278.73 249.33 278.96 249.95 278.41 252.47ZM293.4 250.8C293.73 251.07 294 251.58 294 251.93C294 252.61 292.84 251.36 292.81 250.65C292.81 250.46 293.07 250.53 293.4 250.8ZM288.15 251.2C288.18 251.2 288.2 255.95 288.2 261.76C288.2 267.57 288.06 272.24 287.9 272.14C287.54 271.92 287.49 254.23 287.85 252.45C287.99 251.76 288.12 251.2 288.15 251.2ZM158.03 254.29C157.54 256.64 157.64 296.81 158.14 300.8C158.32 302.25 158.26 302.13 157.8 300.2C157.04 296.98 156.93 256.21 157.68 253.42C158.36 250.89 158.61 251.52 158.03 254.29ZM253.93 252.79C254 253.26 253.8 254.05 253.48 254.54C253.15 255.03 252.79 255.79 252.66 256.22C252.52 256.69 252.49 256.6 252.59 256C252.68 255.45 252.99 254.31 253.28 253.47C253.69 252.26 253.83 252.12 253.93 252.79ZM99 259.06C99 262.77 98.88 265.03 98.72 264.16C98.37 262.17 98.32 255.29 98.65 253.65C99.01 251.87 99 251.75 99 259.06ZM304 253.2C305.24 257.07 304.27 280.4 302.92 279.06C302.78 278.92 302.88 278.8 303.13 278.8C303.48 278.8 303.61 275.34 303.64 265.5C303.66 258.19 303.82 252.65 304 253.2ZM244.31 253.13C244.47 253.62 243.62 255.36 243.35 255.09C243.25 254.99 243.4 254.41 243.67 253.81C243.94 253.2 244.23 252.9 244.31 253.13ZM164.3 264.87C164.36 271.4 164.36 282.2 164.3 288.87C164.24 295.54 164.19 290.2 164.19 277C164.19 263.8 164.24 258.34 164.3 264.87ZM174 254.4C174.18 254.95 174.32 265.12 174.32 277C174.32 288.88 174.18 299.05 174 299.6C173.82 300.15 173.68 289.98 173.68 277C173.68 264.02 173.82 253.85 174 254.4ZM294.2 253.4L294.31 262.57C294.37 267.62 294.28 271.88 294.11 272.05C293.94 272.22 293.89 268.1 294 262.88L294.2 253.4ZM243.08 256.12C243.18 256.51 243 257.24 242.68 257.74C242.35 258.23 242 258.99 241.89 259.42C241.7 260.16 241.69 260.16 241.65 259.38C241.62 258.92 241.86 258.2 242.19 257.78C242.51 257.35 242.8 256.64 242.83 256.2C242.89 255.5 242.91 255.49 243.08 256.12ZM252.33 257.59C252.4 257.8 252.18 258.38 251.83 258.88C251.09 259.94 250.97 259.15 251.7 257.99C251.97 257.55 252.26 257.37 252.33 257.59ZM251.11 260.49C251.19 260.87 250.95 261.59 250.58 262.09C250 262.87 249.94 262.89 250.2 262.2C250.36 261.76 250.6 261.04 250.73 260.6C250.94 259.91 250.99 259.89 251.11 260.49ZM241.51 260.57C241.64 260.7 241.53 261.03 241.27 261.29C241.01 261.55 240.78 262.13 240.75 262.58C240.72 263.22 240.67 263.25 240.53 262.72C240.43 262.35 240.56 261.66 240.81 261.19C241.06 260.72 241.37 260.44 241.51 260.57ZM249.93 263.74C250.06 264.38 249.26 266.19 248.97 265.91C248.89 265.82 249.04 265.16 249.31 264.43C249.6 263.66 249.85 263.37 249.93 263.74ZM248.67 266.88C248.87 267.64 248.07 269.4 247.69 269.03C247.56 268.89 247.67 268.57 247.93 268.31C248.19 268.05 248.42 267.47 248.45 267.02C248.48 266.38 248.53 266.35 248.67 266.88ZM99.47 267.2C99.83 268.25 100.82 270.57 101.25 271.34C101.53 271.86 101.53 272 101.24 271.82C100.69 271.48 99.19 268.07 99.23 267.25C99.26 266.71 99.3 266.7 99.47 267.2ZM247.47 270.08C247.57 270.46 247.38 271.36 247.03 272.08C246.69 272.81 246.24 274.12 246.02 275L245.61 276.6L245.82 274.86C245.93 273.9 246.29 272.6 246.61 271.98C246.94 271.35 247.22 270.52 247.25 270.12C247.29 269.47 247.31 269.47 247.47 270.08ZM106.64 277.95C108.82 280.24 110.76 282.4 110.97 282.75C111.17 283.11 110 282.02 108.36 280.33C105.17 277.02 103.34 274.97 102.93 274.25C102.79 274 104.46 275.67 106.64 277.95ZM246.23 277.2C246.37 277.53 246.73 278.37 247.04 279.06C247.35 279.75 247.59 280.65 247.58 281.06C247.56 281.9 246.42 279.12 246.17 277.6C246.07 277.05 246.1 276.87 246.23 277.2ZM288.17 279.2C288.19 279.2 288.2 284.5 288.2 290.99C288.2 297.47 288.08 302.46 287.93 302.09C287.57 301.19 287.52 279.82 287.87 279.47C288.01 279.32 288.15 279.2 288.17 279.2ZM248.05 282.4C248.44 282.4 248.94 284.17 248.74 284.79C248.66 285.02 248.4 284.57 248.16 283.8C247.92 283.03 247.87 282.4 248.05 282.4ZM295.29 282.45L296.2 282.51L295.3 282.68C294.4 282.86 294.4 282.88 294.31 291.73L294.22 300.6L294.1 292.01C294.04 287.29 294.07 283.19 294.18 282.91C294.29 282.63 294.79 282.43 295.29 282.45ZM303.04 282.4C304.25 282.4 304.4 283.46 304.37 291.58C304.36 296.1 304.19 300.16 304 300.6C303.79 301.08 303.64 297.79 303.63 292.38C303.61 285.93 303.46 283.22 303.12 282.88C302.85 282.61 302.82 282.4 303.04 282.4ZM106.94 283.9C107.04 284.06 105.43 284.14 103.36 284.07L99.6 283.94L99.17 285.07C98.89 285.79 98.78 289.02 98.87 293.91C98.94 298.33 98.86 301.08 98.68 300.36C98.08 298.04 98.51 284.42 99.2 283.99C99.91 283.54 106.67 283.46 106.94 283.9ZM113.37 285.85C114.83 288.46 114.65 288.56 113 286.06C112.23 284.89 111.6 283.85 111.6 283.74C111.6 283.2 112.46 284.22 113.37 285.85ZM123.48 284.91C123.81 285.23 124.01 285.9 123.94 286.38C123.83 287.1 123.71 286.99 123.35 285.8C122.95 284.5 122.97 284.39 123.48 284.91ZM107.5 288.28C107.57 290.3 107.57 293.72 107.5 295.88C107.43 298.04 107.37 296.38 107.37 292.2C107.37 288.02 107.42 286.26 107.5 288.28ZM249.39 286.22C249.71 286.65 249.97 287.36 249.97 287.8C249.97 288.35 249.79 288.19 249.38 287.25C249.06 286.51 248.8 285.8 248.8 285.68C248.8 285.55 249.06 285.8 249.39 286.22ZM124.46 289C125.13 290.75 125.14 300.39 124.48 301.4C124.02 302.1 124 302 124.28 300.6C124.67 298.65 124.68 292.53 124.28 289.8C124.03 288.04 124.05 287.94 124.46 289ZM114.7 292.12C114.77 294.06 114.77 297.12 114.7 298.92C114.62 300.72 114.56 299.14 114.56 295.4C114.56 291.66 114.63 290.18 114.7 292.12ZM241.01 290.6C241.73 292.6 241.73 292.8 240.99 291.82C240.66 291.4 240.41 290.59 240.42 290.02C240.43 289.18 240.53 289.27 241.01 290.6ZM250.59 289.82C250.91 290.25 251.18 290.96 251.19 291.4C251.19 292.04 251.07 291.97 250.6 291.05C250.27 290.42 250 289.71 250 289.48C250 289.24 250.26 289.4 250.59 289.82ZM239.79 289.4L239.9 300.39C240.02 311.76 239.97 312.42 239.11 312.37C238.71 312.34 238.71 312.29 239.1 312.13C239.48 311.98 239.62 309.23 239.69 300.67L239.79 289.4ZM251.8 293.35C252.13 293.98 252.39 294.7 252.39 294.95C252.37 295.6 251.23 293.52 251.22 292.8C251.21 292.47 251.47 292.72 251.8 293.35ZM241.71 292.6L241.89 293.6C241.99 294.15 242.23 294.77 242.43 294.98C242.63 295.19 242.79 295.55 242.79 295.78C242.78 296.01 242.51 295.85 242.19 295.42C241.86 295 241.63 294.19 241.65 293.62L241.71 292.6ZM253.17 297.6C253.62 297.6 254.22 300.31 253.85 300.69C253.71 300.82 253.6 300.53 253.6 300.04C253.6 299.55 253.41 298.8 253.19 298.37C252.92 297.88 252.91 297.6 253.17 297.6ZM244.38 300.8C244.39 301.13 244.13 300.88 243.8 300.25C243.47 299.62 243.21 298.9 243.21 298.65C243.24 298 244.37 300.08 244.38 300.8ZM108.16 301.33C108.34 302.08 108.29 302.38 108.02 302.21C107.79 302.07 107.6 301.48 107.6 300.91C107.6 299.66 107.79 299.8 108.16 301.33ZM254.61 301.78C254.94 302.2 255.18 302.92 255.15 303.38C255.11 304.18 255.1 304.18 254.91 303.4C254.81 302.96 254.56 302.43 254.36 302.22C254.16 302.01 254.01 301.65 254.01 301.42C254.02 301.19 254.29 301.35 254.61 301.78ZM245.02 302.75C245.78 304.51 245.77 305.33 245 303.85C244.67 303.22 244.41 302.41 244.42 302.05C244.42 301.69 244.69 302.01 245.02 302.75ZM293.9 302.17C295.08 303.35 290.94 305.24 289.38 304.23C288.04 303.35 288.14 303.13 289.57 303.85C291.05 304.58 292.54 304.23 293.22 302.97C293.5 302.44 293.81 302.07 293.9 302.17ZM114.31 302.57C115.22 303.49 111.99 304.95 110.18 304.44C109.15 304.14 109.24 304.1 110.89 304.15C112.45 304.19 112.9 304.04 113.43 303.27C113.79 302.76 114.18 302.45 114.31 302.57ZM158.69 302.8C158.93 302.8 159.22 303.07 159.34 303.4C159.49 303.78 160.13 304.01 161.09 304.03C162.24 304.05 162.41 304.13 161.81 304.37C160.77 304.77 159.81 304.5 158.96 303.56C158.59 303.14 158.47 302.8 158.69 302.8ZM303.49 303.75C303.6 304.5 303.42 305.14 302.99 305.55C302.35 306.15 302.34 306.14 302.75 305.33C303 304.85 303.23 304.04 303.26 303.53C303.31 302.79 303.36 302.83 303.49 303.75ZM173.33 303.4L173.49 304.76C173.6 305.64 173.44 306.33 173.03 306.74C172.65 307.12 172.4 307.19 172.4 306.91C172.4 306.65 172.58 306.34 172.8 306.2C173.02 306.06 173.23 305.38 173.26 304.68L173.33 303.4ZM99.8 304.95C100.56 306.39 100.56 306.63 99.8 306C99.47 305.73 99.2 305.12 99.2 304.65C99.2 303.91 99.28 303.95 99.8 304.95ZM123.89 304.55C123.99 304.96 123.79 305.54 123.44 305.85C123.09 306.15 122.98 306.19 123.2 305.92C123.42 305.66 123.62 305.07 123.65 304.62C123.69 303.88 123.71 303.87 123.89 304.55ZM255.84 305.32C256.18 305.94 256.37 306.75 256.27 307.12C256.14 307.62 256.08 307.56 256.05 306.92C256.02 306.44 255.82 305.94 255.6 305.8C255.38 305.66 255.21 305.25 255.22 304.88C255.23 304.42 255.43 304.57 255.84 305.32ZM246.22 306.35C246.95 308.04 246.94 308.42 246.19 307.42C245.86 307 245.61 306.28 245.62 305.82C245.63 305.22 245.78 305.35 246.22 306.35ZM280.15 307.1C280.73 308.04 281.12 308.8 281.01 308.8C280.76 308.8 278.8 305.72 278.8 305.34C278.8 304.97 278.93 305.13 280.15 307.1ZM302.32 306.75C302.71 307.92 297.22 312.43 295.49 312.37C294.73 312.34 294.77 312.28 295.73 311.99C297.34 311.51 301.16 308.53 301.71 307.32C301.96 306.77 302.24 306.51 302.32 306.75ZM101.55 308.02C101.96 308.69 102.89 309.68 103.62 310.22C104.36 310.76 104.73 311.2 104.45 311.2C103.89 311.2 100.4 307.71 100.4 307.15C100.4 306.49 100.81 306.8 101.55 308.02ZM122.8 307.18C122.8 308.5 117.58 312.44 115.95 312.35L115 312.29L115.99 312.11C117.45 311.83 120.88 309.42 121.8 308.02C122.66 306.71 122.8 306.59 122.8 307.18ZM172.2 308C172.31 308 172.4 308.25 172.4 308.55C172.4 309.34 169.23 312.4 168.45 312.38C167.96 312.36 168 312.27 168.61 312.02C169.67 311.59 172 309.19 172 308.52C172 308.24 172.09 308 172.2 308ZM256.99 308.62C257.31 309.05 257.58 309.76 257.58 310.2C257.59 310.84 257.48 310.77 257 309.85C256.67 309.22 256.4 308.51 256.4 308.28C256.4 308.04 256.66 308.2 256.99 308.62ZM247.57 310.25C247.98 311.16 248.56 312 248.86 312.12C249.19 312.25 249.22 312.35 248.93 312.37C248.24 312.42 246.8 310.43 246.81 309.45C246.81 308.86 247.05 309.11 247.57 310.25ZM283.5 310.72C284.22 311.26 285.39 311.84 286.11 312.01L287.4 312.32L286.26 312.36C285.26 312.39 283.08 311.09 281.4 309.47C280.78 308.87 282.01 309.6 283.5 310.72ZM157.9 309.89C159.22 310.39 159.78 311.21 158.73 311.1L157.8 311L157.6 323.12C157.37 337.15 157.81 335.99 152.67 335.99C149.15 336 147.59 335.6 147.61 334.69C147.61 334.37 147.74 334.4 147.98 334.78C148.48 335.57 155.73 335.92 156.6 335.2C157.11 334.78 157.2 332.81 157.2 322.16C157.2 310.39 157.24 309.64 157.9 309.89ZM105.68 311.52C105.94 311.78 106.62 312.01 107.18 312.03C107.74 312.05 107.97 312.16 107.68 312.27C106.91 312.58 105.2 312.06 105.2 311.51C105.2 311.15 105.31 311.15 105.68 311.52ZM160.99 311.74C161.53 311.99 161.79 312.26 161.57 312.34C161 312.53 160 312.1 160 311.65C160 311.44 160.44 311.48 160.99 311.74ZM111.8 312.45C113.81 312.47 114.32 312.57 113.6 312.8C112.18 313.25 110.3 313.25 109.6 312.8C109.18 312.53 109.86 312.42 111.8 312.45ZM164.8 312.43C166.62 312.42 167.22 312.53 166.8 312.8C166.07 313.27 164.09 313.27 163 312.8C162.44 312.56 162.98 312.45 164.8 312.43ZM290.88 312.43C292.88 312.45 293.55 312.56 293 312.8C291.88 313.28 288.5 313.28 288.2 312.8C288.04 312.55 289.02 312.41 290.88 312.43Z" />
	</g>
</svg>